<?xml version="1.0" encoding="UTF-8" standalone="no"?>
<!-- Created with Inkscape (http://www.inkscape.org/) -->

<svg
   xmlns:dc="http://purl.org/dc/elements/1.1/"
   xmlns:cc="http://creativecommons.org/ns#"
   xmlns:rdf="http://www.w3.org/1999/02/22-rdf-syntax-ns#"
   xmlns:svg="http://www.w3.org/2000/svg"
   xmlns="http://www.w3.org/2000/svg"
   xmlns:sodipodi="http://sodipodi.sourceforge.net/DTD/sodipodi-0.dtd"
   xmlns:inkscape="http://www.inkscape.org/namespaces/inkscape"
   width="210mm"
   height="297mm"
   viewBox="0 0 210 297"
   version="1.1"
   id="svg8"
   inkscape:version="0.92.3 (2405546, 2018-03-11)"
   sodipodi:docname="logo.svg">
  <defs
     id="defs2" />
  <sodipodi:namedview
     id="base"
     pagecolor="#ffffff"
     bordercolor="#666666"
     borderopacity="1.0"
     inkscape:pageopacity="0.29019608"
     inkscape:pageshadow="2"
     inkscape:zoom="0.35"
     inkscape:cx="400"
     inkscape:cy="560"
     inkscape:document-units="mm"
     inkscape:current-layer="layer1"
     showgrid="false"
     inkscape:window-width="1366"
     inkscape:window-height="705"
     inkscape:window-x="-8"
     inkscape:window-y="-8"
     inkscape:window-maximized="1"
     borderlayer="true"
     inkscape:showpageshadow="true" />
  <metadata
     id="metadata5">
    <rdf:RDF>
      <cc:Work
         rdf:about="">
        <dc:format>image/svg+xml</dc:format>
        <dc:type
           rdf:resource="http://purl.org/dc/dcmitype/StillImage" />
        <dc:title></dc:title>
      </cc:Work>
    </rdf:RDF>
  </metadata>
  <g
     inkscape:label="Layer 1"
     inkscape:groupmode="layer"
     id="layer1">
    <g
       id="g3822"
       transform="translate(12.851195,-13.607142)">
      <path
         style="fill:#9a9dab;stroke-width:0.26458332"
         d="m 131.42232,181.69091 c -0.21828,-0.0493 -0.85046,-0.16379 -1.40484,-0.25446 -1.04096,-0.17026 -3.09307,-1.75082 -3.09307,-2.38231 0,-0.18353 0.1762,-0.47993 0.39156,-0.65866 0.31965,-0.26529 0.55046,-0.19099 1.25677,0.40457 2.45331,2.06863 5.75476,1.89531 7.27608,-0.38196 0.44391,-0.66449 0.60059,-1.28136 0.60059,-2.36461 v -1.46558 l -0.72761,0.67863 c -1.4819,1.38216 -3.14465,1.75647 -5.17741,1.16553 -5.0384,-1.4647 -5.59593,-9.23847 -0.84186,-11.73818 1.03853,-0.54606 3.72086,-0.54705 4.76313,-0.002 0.4369,0.22858 1.03222,0.67959 1.32291,1.00224 l 0.52855,0.58664 0.13229,-0.89028 c 0.11641,-0.78341 0.22757,-0.89028 0.92604,-0.89028 h 0.79375 l 0.0715,5.81932 c 0.0434,3.53535 -0.0439,6.37529 -0.22258,7.23587 -0.36165,1.74207 -1.63693,3.26513 -3.08038,3.6789 -1.22093,0.34997 -2.97695,0.57795 -3.5154,0.45638 z m 2.83881,-6.99443 c 1.63347,-0.74151 2.18607,-1.80715 2.18729,-4.21794 7.9e-4,-1.69508 -0.0903,-2.07909 -0.6758,-2.84671 -0.94325,-1.23667 -2.59094,-2.03349 -3.85446,-1.86401 -3.35663,0.45022 -4.90303,5.2384 -2.52873,7.8298 1.50746,1.64531 2.95076,1.97086 4.8717,1.09886 z m -77.319014,1.61197 c -1.597302,-0.72973 -2.6289,-1.85168 -3.263855,-3.5497 -0.684598,-1.83078 -0.70145,-2.30029 -0.149868,-4.17539 0.602245,-2.04733 2.426841,-3.79062 4.395074,-4.19923 2.241841,-0.4654 3.927811,0.004 5.506669,1.53382 1.392968,1.34952 1.903468,2.66159 1.886527,4.8487 -0.03322,4.28902 -4.559906,7.28452 -8.374547,5.5418 z m 4.418703,-1.79062 c 1.509472,-1.04607 2.151783,-2.25926 2.151783,-4.06426 0,-1.88467 -0.726485,-3.17112 -2.317279,-4.10338 -1.461461,-0.85648 -2.421716,-0.83205 -3.889743,0.099 -1.476896,0.93662 -2.083255,2.13687 -2.083255,4.1237 0,1.84169 0.487889,2.83084 1.901272,3.8547 1.426443,1.0333 2.833192,1.06328 4.237222,0.0903 z m 26.272964,1.78307 c -1.307925,-0.60685 -2.619102,-1.95849 -3.161591,-3.25914 -0.561483,-1.34621 -0.519612,-4.04241 0.08334,-5.36632 1.51408,-3.32447 5.95757,-4.51139 8.998913,-2.40374 1.328425,0.9206 2.450229,2.98167 2.50444,4.60138 l 0.04157,1.24195 -5.09323,0.0719 c -5.748493,0.0811 -5.629097,0.0256 -4.435509,2.06229 0.696603,1.18867 2.38823,2.23653 3.593002,2.22566 0.929431,-0.008 2.755524,-0.89905 3.228882,-1.57486 0.437388,-0.62446 1.520614,-0.66617 1.71826,-0.0662 0.180515,0.54799 -1.837907,2.35587 -2.986122,2.67464 -1.548328,0.42985 -3.291797,0.34929 -4.49195,-0.20756 z m 6.746875,-6.73389 c 0,-0.051 -0.135557,-0.49753 -0.301233,-0.99219 -0.613715,-1.83232 -2.103544,-2.88375 -4.08617,-2.88375 -1.573617,0 -2.865194,0.77415 -3.558323,2.13279 -0.954064,1.87012 -1.023136,1.83596 3.712393,1.83596 2.328333,0 4.233333,-0.0418 4.233333,-0.0928 z m 62.261292,6.84969 c -1.17691,-0.51189 -1.40388,-1.5709 -1.40565,-6.55844 l -0.001,-4.16719 h -0.79375 c -0.67027,0 -0.79375,-0.10289 -0.79375,-0.66146 0,-0.55856 0.12348,-0.66146 0.79375,-0.66146 h 0.79375 V 162.67 c 0,-2.19452 0.14602,-2.53518 1.08665,-2.53518 h 0.76544 v 2.11667 2.11666 h 1.45521 c 1.37583,0 1.4552,0.0361 1.4552,0.66146 0,0.62538 -0.0794,0.66146 -1.4552,0.66146 h -1.45521 v 4.21443 c 0,4.99132 0.0918,5.20283 2.15314,4.9587 1.08746,-0.1288 1.28195,-0.0791 1.42244,0.36355 0.22779,0.71769 -0.007,0.98591 -1.13775,1.29997 -1.28198,0.35604 -1.86016,0.33378 -2.88279,-0.11102 z M 34.232047,176.3626 c -0.220414,-0.22042 -0.235425,-15.50149 -0.01579,-16.07385 0.09953,-0.25938 0.4768,-0.41788 0.992187,-0.41684 0.915267,0.002 0.703272,-0.27465 3.345972,4.36395 3.139801,5.51114 3.773263,6.61664 3.831452,6.68655 0.06592,0.0792 0.897768,-1.32579 4.193889,-7.08342 2.156529,-3.76701 2.212726,-3.83646 3.104322,-3.83646 h 0.908037 l 0.06992,8.26823 0.06991,8.26823 h -0.929809 -0.929812 l -0.0059,-6.41615 c -0.0059,-6.41204 -0.0062,-6.41572 -0.521943,-5.75469 -0.283835,0.36381 -0.668139,0.96029 -0.854012,1.32552 -0.185875,0.36523 -1.275786,2.3063 -2.42203,4.31348 -1.738448,3.0442 -2.176184,3.63614 -2.639475,3.56928 -0.566122,-0.0817 -1.726726,-1.88273 -4.740417,-7.35619 l -1.383957,-2.51355 -0.07085,6.41615 -0.07085,6.41615 H 35.28565 c -0.482482,0 -0.956615,-0.0794 -1.053629,-0.17639 z m 36.686816,-0.15434 c -0.115332,-0.1819 -0.909497,-2.05714 -1.764816,-4.16719 -3.358242,-8.28473 -3.196455,-7.67292 -2.029023,-7.67292 0.942501,0 0.759243,-0.37407 3.888602,7.9375 0.356132,0.94589 0.73845,1.81257 0.849593,1.92597 0.111144,0.11339 0.5426,-0.66051 0.958795,-1.71979 3.334536,-8.48694 3.094117,-8.00406 4.029998,-8.09429 0.472943,-0.0456 0.859896,-0.0196 0.859896,0.0578 0,0.10547 -2.862128,7.27484 -4.683958,11.73288 -0.07434,0.1819 -0.532109,0.33073 -1.017276,0.33073 -0.485166,0 -0.976482,-0.14883 -1.091811,-0.33073 z m 8.770165,0.0103 c -0.07475,-0.19479 -0.103695,-2.91107 -0.06432,-6.03617 l 0.07158,-5.68198 h 0.926042 0.926041 v 5.95312 5.95313 l -0.861716,0.083 c -0.539607,0.052 -0.912516,-0.0493 -0.997622,-0.27113 z m 25.010382,-8.01399 v -8.33437 h 0.61681 c 0.48557,0 1.59735,1.22226 5.22552,5.74477 2.53479,3.15962 4.90637,6.16595 5.27017,6.68073 l 0.66146,0.93595 0.13229,-6.61458 0.13229,-6.61458 0.8599,-0.0829 0.85989,-0.0829 v 8.35114 8.35114 h -0.77458 c -0.67656,0 -1.12888,-0.44367 -3.57417,-3.50573 -5.63704,-7.05889 -6.38046,-7.9797 -7.08672,-8.77775 l -0.71985,-0.8134 -0.008,6.54844 -0.008,6.54844 h -0.79375 -0.79375 z m 17.4625,2.24896 v -6.11894 l 0.85989,0.0829 0.8599,0.0829 v 5.95312 5.95313 l -0.8599,0.0829 -0.85989,0.0829 z m 19.37706,-2.4474 0.0698,-8.53281 h 0.79375 0.79375 l 0.13229,3.37928 0.1323,3.37929 0.96758,-0.79858 c 2.20282,-1.81806 5.19373,-1.67322 6.51098,0.31531 0.71278,1.07602 0.72474,1.16419 0.80603,5.94128 l 0.0825,4.84905 h -0.9424 -0.9424 v -4.10954 c 0,-4.26176 -0.21769,-5.40256 -1.18383,-6.20384 -1.1521,-0.95551 -3.82317,-0.0305 -4.88825,1.69284 -0.48224,0.78028 -0.54251,1.30786 -0.54251,4.74916 v 3.87138 h -0.9297 -0.92971 z m -61.78605,-6.18312 c -0.340207,-0.3402 -0.197959,-1.88052 0.204509,-2.21454 0.2295,-0.19047 0.676651,-0.25545 1.073121,-0.15594 0.613551,0.15399 0.671804,0.27914 0.598747,1.28631 -0.07456,1.02793 -0.144142,1.12192 -0.88419,1.19442 -0.441793,0.0433 -0.888277,-0.006 -0.992187,-0.11025 z m 42.45991,-1.07502 c 0.0744,-1.16594 0.14264,-1.28173 0.79975,-1.3575 0.57608,-0.0664 0.75075,0.0462 0.88182,0.5684 0.32545,1.29671 0.06,1.8887 -0.88782,1.97973 l -0.87513,0.084 z M 69.120318,143.92691 c -0.708001,-0.61889 -0.906325,-1.31111 -3.050524,-10.6473 -0.467897,-2.03729 -1.182068,-5.13292 -1.587053,-6.87917 -0.404984,-1.74625 -1.119359,-4.84187 -1.5875,-6.87916 -0.46814,-2.03729 -1.183063,-5.13292 -1.588711,-6.87917 -0.405652,-1.74625 -1.061768,-4.57398 -1.458037,-6.28385 -0.396269,-1.70987 -0.842804,-3.10886 -0.992296,-3.10886 -0.516589,0 -3.07381,-1.86134 -3.848613,-2.80131 -0.42762,-0.518774 -1.119786,-1.618755 -1.538148,-2.444395 -0.694208,-1.370037 -0.760653,-1.743843 -0.760653,-4.279292 0,-2.534171 0.06783,-2.916282 0.772483,-4.351432 0.424865,-0.86532 1.377365,-2.197167 2.116666,-2.959656 l 1.344184,-1.386348 -0.363397,-1.141386 c -0.199869,-0.627761 -0.376338,-2.27248 -0.392152,-3.654928 -0.06232,-5.447826 2.661335,-10.141817 7.653925,-13.190884 1.835832,-1.121177 5.562163,-1.994315 7.683468,-1.800357 1.480756,0.135387 1.640332,0.09875 1.890615,-0.434091 0.598111,-1.27335 2.248937,-2.802083 4.085381,-3.78323 1.857504,-0.992398 2.028343,-1.031988 4.445285,-1.030123 2.262894,0.0017 2.685037,0.08377 4.233334,0.822568 1.869146,0.891895 3.161337,1.913411 3.959458,3.130077 0.445505,0.679135 0.805113,0.837758 2.839389,1.252439 4.183052,0.852702 7.929378,3.325257 9.752898,6.43686 0.4647,0.792946 0.93283,1.244002 1.39979,1.348722 3.27228,0.73383 4.20715,1.186508 6.18668,2.995686 1.47021,1.343687 3.37845,4.461658 3.37845,5.520214 0,0.345305 0.45968,0.824013 1.32358,1.378376 0.72797,0.467135 1.84748,1.432047 2.48781,2.144249 1.09772,1.220931 1.23951,1.294911 2.48176,1.294911 h 1.31753 l 0.71751,-2.315104 c 0.39463,-1.273307 1.05779,-3.386667 1.47368,-4.696354 0.4159,-1.309688 1.12417,-3.559485 1.57393,-4.999548 1.03845,-3.324982 1.13694,-3.49657 2.2101,-3.850746 0.95046,-0.313677 1.95589,-0.08707 2.4602,0.5545 0.76505,0.973273 0.63213,1.729597 -1.5045,8.560377 -0.45518,1.455208 -1.09881,3.538802 -1.43029,4.630208 l -0.60269,1.984375 3.46913,0.146606 c 1.90802,0.08063 3.66075,0.235773 3.89495,0.34476 0.57911,0.269491 0.85394,0.899247 1.81103,4.149791 1.30613,4.436018 1.31105,4.594434 0.17579,5.665124 l -0.96452,0.909658 -0.38895,6.827453 c -0.21392,3.75509 -0.45304,7.48229 -0.5314,8.28265 -0.0783,0.80036 -0.43954,7.11068 -0.80266,14.02292 -0.82848,15.7708 -0.91578,16.60081 -1.8287,17.38607 l -0.69321,0.59627 -30.27323,0.002 -30.273237,0.002 -0.678535,-0.59314 z m 58.449352,-6.48011 c 0.091,-1.41883 0.28149,-4.18703 0.42328,-6.15156 0.14179,-1.96453 0.49344,-8.03672 0.78144,-13.49375 0.288,-5.45703 0.64147,-11.58875 0.7855,-13.62605 0.14402,-2.03729 0.29456,-4.418537 0.33454,-5.291662 l 0.0727,-1.5875 -12.77585,-0.06869 -12.77584,-0.06869 0.14835,2.31765 c 0.0816,1.274712 0.26349,4.103592 0.40422,6.286402 0.2564,3.97674 0.68921,11.39944 1.45793,25.00312 0.22613,4.00182 0.48117,7.72253 0.56675,8.26823 l 0.15561,0.99219 h 10.12795 10.12795 z m -52.084384,1.32292 c -0.08606,-0.54571 -0.393846,-3.4925 -0.683977,-6.54844 -0.290129,-3.05594 -0.581663,-5.79438 -0.647851,-6.08542 -0.06619,-0.29104 -0.365297,-2.96995 -0.664686,-5.95312 -0.650902,-6.48567 -1.594493,-14.97934 -1.756265,-15.80886 -0.11404,-0.58476 -0.184322,-0.59531 -3.965345,-0.59531 -3.544154,0 -3.837889,0.0367 -3.705939,0.46302 0.07882,0.25466 0.32584,1.35599 0.548936,2.4474 0.223094,1.0914 0.702199,3.23453 1.064676,4.7625 0.697632,2.94075 1.642946,7.01167 3.04124,13.09687 0.46814,2.03729 1.182835,5.13292 1.588211,6.87917 0.405374,1.74625 1.004933,4.33586 1.332352,5.75469 l 0.595307,2.57968 h 1.704904 1.704906 z m 8.576622,-16.99948 v -17.99167 h -3.873312 -3.873312 l 0.172725,1.38906 c 0.188611,1.51683 1.420836,13.00259 2.40565,22.42344 0.770289,7.36869 1.232254,11.40779 1.35419,11.8401 0.06329,0.22439 0.691502,0.33073 1.953673,0.33073 h 1.860386 z m 8.323432,16.33802 c 0.09532,-0.90951 0.402981,-3.55865 0.683696,-5.88698 0.280715,-2.32834 0.694082,-6.13834 0.918594,-8.46667 0.22451,-2.32833 0.525388,-5.06677 0.668618,-6.08541 0.369774,-2.62982 1.31191,-11.97948 1.31191,-13.01925 v -0.87138 h -3.704167 -3.704166 v 17.99167 17.99166 h 1.826104 1.826106 z m 8.68371,-1.45726 c 0.94482,-3.99221 0.94437,-4.10752 -0.0806,-20.96618 -0.49586,-8.15621 -0.57426,-8.17105 -1.397985,-0.26458 -0.976675,9.37456 -2.218248,20.94103 -2.449589,22.82031 l -0.18728,1.52135 1.690073,-0.002 1.690071,-0.002 0.73527,-3.1068 z M 99.878718,98.22232 c 0.06318,-0.789527 -0.04269,-0.991682 -0.718108,-1.371306 -1.386284,-0.779166 -1.353151,-2.335194 0.153675,-7.216905 1.037945,-3.362664 0.938885,-3.31684 7.185815,-3.324064 4.9043,-0.0057 5.16155,-0.0303 4.3739,-0.418769 -0.86245,-0.425363 -1.02658,-0.733438 -1.79894,-3.376792 -0.48667,-1.665603 -1.99662,-3.58525 -3.38469,-4.303046 -0.41595,-0.215096 -1.64922,-0.491225 -2.7406,-0.613616 -2.30247,-0.258213 -2.73384,-0.557697 -3.829689,-2.658835 -0.417433,-0.800365 -1.029491,-1.762445 -1.360133,-2.137955 -1.706443,-1.938015 -4.648642,-3.153712 -7.632531,-3.153712 -1.535199,0 -2.890509,-0.672714 -2.890509,-1.434714 0,-0.688281 -1.615911,-2.537933 -2.708434,-3.100213 -2.923349,-1.504526 -6.919301,0.237546 -7.531296,3.283337 -0.08098,0.403032 -0.510465,1.03842 -0.95441,1.411978 -0.723947,0.609161 -0.931857,0.656368 -2.016413,0.457837 -0.665081,-0.121742 -2.238346,-0.215839 -3.496144,-0.209102 -2.063072,0.01106 -2.459982,0.100097 -4.05526,0.909817 -1.798847,0.913045 -3.746966,2.770378 -4.565804,4.353023 -1.291772,2.49673 -1.447363,5.558832 -0.437682,8.613815 0.647812,1.960067 0.691592,2.884177 0.169344,3.574346 -0.110426,0.145933 -0.870376,0.70273 -1.688774,1.237326 -3.339518,2.181448 -3.848534,6.536672 -1.069263,9.148826 1.503695,1.413283 0.831318,1.372474 21.607261,1.311474 L 99.804616,99.14836 Z M 81.660306,92.421838 c -0.853979,-0.853979 -0.936154,-1.464783 -0.505113,-3.754551 0.952854,-5.061754 5.461212,-9.118476 10.73399,-9.658689 1.608132,-0.164758 1.697548,-0.141742 2.476793,0.637503 1.770655,1.770653 0.423035,4.010893 -2.424215,4.029946 -3.00821,0.02013 -6.042925,3.202943 -6.463171,6.778583 -0.313176,2.66464 -2.166175,3.61932 -3.818284,1.967208 z M 69.12175,86.275721 c -0.688565,-0.541623 -0.719101,-0.661479 -0.623517,-2.447396 0.237794,-4.443084 3.80724,-8.060774 8.20461,-8.315502 1.615651,-0.09359 1.827884,-0.04365 2.447396,0.575858 0.847449,0.847449 0.909653,2.206402 0.138861,3.033749 -0.296709,0.318482 -0.578115,0.579057 -0.625346,0.579057 -0.935251,0 -3.100101,0.692261 -3.77526,1.20723 -1.010245,0.770551 -1.939086,2.413474 -1.939086,3.429831 0,2.14055 -2.171782,3.239685 -3.827658,1.937173 z m 61.77141,6.14299 c 0,-0.136049 -0.11612,-0.552767 -0.25804,-0.926042 l -0.25803,-0.678682 h -13.24227 -13.24226 l -0.25803,0.678682 c -0.14192,0.373275 -0.25804,0.789993 -0.25804,0.926042 0,0.150252 5.40119,0.247359 13.75833,0.247359 8.35715,0 13.75834,-0.09711 13.75834,-0.247359 z"
         id="path3836"
         inkscape:connector-curvature="0" />
      <path
         style="fill:#778593;stroke-width:0.26458332"
         d="m 129.43795,181.19752 c -0.93269,-0.40872 -2.51354,-1.82977 -2.51354,-2.25945 0,-0.57536 0.82196,-0.61274 1.40613,-0.0639 0.89175,0.83775 2.39958,1.36901 3.88553,1.36901 2.92896,0 4.23656,-1.3105 4.22393,-4.23333 -0.006,-1.42057 -0.0642,-1.64514 -0.33406,-1.29075 -0.82029,1.07747 -2.36126,1.81992 -3.77727,1.81992 -1.73046,0 -2.42922,-0.25629 -3.67066,-1.34629 -1.47014,-1.29079 -2.076,-2.69127 -2.076,-4.7987 0,-2.36362 0.80093,-3.97595 2.5662,-5.16595 1.09571,-0.73864 1.50456,-0.85976 2.89933,-0.85891 1.74329,0.001 2.62104,0.38357 3.93885,1.71648 l 0.7276,0.73594 v -1.2267 c 0,-1.1321 0.051,-1.22671 0.66146,-1.22671 h 0.66146 v 6.62309 c 0,5.0455 -0.087,6.82587 -0.36533,7.47447 -0.47291,1.10213 -1.90683,2.41969 -3.04759,2.80029 -1.20606,0.40239 -4.20181,0.36283 -5.18604,-0.0685 z m 5.99037,-7.24755 1.02109,-1.09466 v -2.38267 c 0,-2.38212 -2.3e-4,-2.38291 -0.95084,-3.33352 -1.13728,-1.13728 -1.87186,-1.44805 -3.4228,-1.44805 -0.92847,0 -1.35631,0.16867 -2.11296,0.83302 -1.30262,1.14372 -1.76933,2.1645 -1.78518,3.90455 -0.0145,1.59746 0.43013,2.72243 1.43362,3.62682 1.10812,0.99868 1.64233,1.17725 3.23739,1.08212 1.43532,-0.0856 1.63936,-0.17954 2.57968,-1.18761 z m -78.077616,2.43625 c -2.688531,-1.16627 -3.835458,-2.93972 -3.836786,-5.93265 -0.0011,-2.20585 0.338698,-3.07827 1.726996,-4.43559 1.360107,-1.32975 2.442774,-1.72036 4.44603,-1.60402 2.065123,0.11992 3.412659,0.89064 4.569893,2.61372 1.694008,2.52231 1.124612,6.5432 -1.174959,8.29717 -1.914035,1.4599 -3.9453,1.83608 -5.731174,1.06137 z m 4.756219,-2.42692 c 0.950071,-0.95312 1.298157,-1.52846 1.440667,-2.38125 0.28031,-1.67738 -0.06598,-3.15759 -0.98308,-4.2021 -1.171411,-1.33417 -2.160278,-1.76708 -3.698711,-1.61926 -3.198945,0.30738 -4.941261,4.53951 -3.10914,7.55219 0.774245,1.27314 1.991045,1.90504 3.670652,1.9062 1.350523,0.001 1.493879,-0.0662 2.679612,-1.25578 z m 26.419138,2.60305 c -0.382373,-0.12367 -1.132951,-0.52231 -1.667949,-0.88585 -4.050419,-2.75233 -3.611319,-8.81198 0.789879,-10.90048 1.54904,-0.73507 4.268692,-0.48451 5.729076,0.52782 1.3574,0.94093 2.591091,3.16351 2.591091,4.66801 v 1.01089 H 90.95669 c -2.901741,0 -5.077277,0.10648 -5.167794,0.25293 -0.216551,0.35039 0.557779,2.12113 1.262203,2.88641 1.645888,1.78807 4.612465,1.75994 6.299769,-0.0597 0.456184,-0.49197 0.800111,-0.63968 1.228542,-0.52765 0.327248,0.0856 0.594998,0.24692 0.594998,0.35853 0,0.25812 -1.900735,1.98242 -2.594602,2.35376 -0.732557,0.39206 -3.218664,0.58547 -4.053745,0.31537 z m 5.850245,-7.23326 c -0.0085,-1.16092 -1.122244,-2.68022 -2.446163,-3.33687 -1.719321,-0.85275 -3.266604,-0.63251 -4.708594,0.67024 -0.967232,0.87384 -1.734045,2.52134 -1.414314,3.03867 0.07589,0.1228 2.03596,0.22327 4.355705,0.22327 4.198829,0 4.217699,-0.003 4.213366,-0.59531 z M 34.49663,176.3626 c -0.09701,-0.097 -0.176389,-3.78795 -0.176389,-8.20209 v -8.02569 h 0.892684 c 0.8844,0 0.920773,0.0496 3.920339,5.34168 1.66521,2.93792 3.138737,5.37641 3.274504,5.41886 0.135766,0.0425 1.624671,-2.33154 3.308675,-5.27553 2.89482,-5.06075 3.107688,-5.35724 3.902605,-5.43563 l 0.840777,-0.0829 v 8.21885 8.21885 h -0.79375 -0.79375 v -6.49791 c 0,-3.57385 -0.100709,-6.43566 -0.223796,-6.35959 -0.123086,0.0761 -1.442129,2.28575 -2.93121,4.9104 -2.21462,3.90349 -2.811991,4.7712 -3.281936,4.76718 -0.460331,-0.004 -0.96363,-0.70071 -2.532318,-3.50573 -2.693617,-4.81655 -3.622951,-6.29853 -3.823795,-6.09769 -0.09434,0.0943 -0.171529,3.00919 -0.171529,6.47743 V 176.539 H 35.29038 c -0.339548,0 -0.696736,-0.0794 -0.79375,-0.17639 z m 36.523476,-0.1401 c -1.40258,-3.34229 -4.684686,-11.50802 -4.68494,-11.65591 -1.88e-4,-0.10914 0.334632,-0.19844 0.744043,-0.19844 0.679204,0 0.809582,0.16797 1.488985,1.91823 0.409532,1.05503 1.265184,3.25505 1.901452,4.88893 0.636264,1.63389 1.156845,3.0924 1.156845,3.24115 0,0.14874 0.104143,0.27044 0.231429,0.27044 0.127285,0 0.847968,-1.57757 1.601515,-3.50573 2.619965,-6.70387 2.674387,-6.81302 3.396969,-6.81302 0.866897,0 0.853453,0.0485 -1.834819,6.61459 -2.175068,5.31262 -2.237444,5.42561 -3.038681,5.50435 -0.487993,0.048 -0.876438,-0.0588 -0.962798,-0.26459 z m 8.808469,-5.76893 v -6.08542 h 0.79375 0.79375 v 6.08542 6.08542 h -0.79375 -0.79375 z m 24.870835,-2.11667 v -8.20208 h 0.64234 c 0.52276,0 1.61865,1.22888 5.88698,6.6014 2.88455,3.63077 5.33393,6.60733 5.44307,6.61458 0.10914,0.007 0.19844,-2.96338 0.19844,-6.6014 v -6.61458 h 0.79375 0.79375 v 8.21885 8.21884 l -0.76461,-0.0829 c -0.64794,-0.0703 -1.56638,-1.09002 -6.01927,-6.68332 l -5.25466,-6.60041 -0.0707,6.66656 -0.0707,6.66656 h -0.7892 -0.78921 z m 17.4625,2.11667 v -6.08542 h 0.79375 0.79375 v 6.08542 6.08542 h -0.79375 -0.79375 z m 19.31458,-2.38125 v -8.46667 h 0.79375 0.79375 v 3.57188 c 0,1.96453 0.0722,3.57187 0.16036,3.57187 0.0882,0 0.39711,-0.30097 0.68647,-0.66884 0.83519,-1.06176 2.37928,-1.71241 4.06388,-1.71241 1.33394,0 1.58438,0.0922 2.36119,0.86898 1.17681,1.17682 1.49343,2.86696 1.40102,7.4788 l -0.074,3.69077 -0.70458,0.0815 -0.70458,0.0815 -0.0892,-4.31483 c -0.0774,-3.74454 -0.15943,-4.43442 -0.62076,-5.21963 -0.96019,-1.6343 -3.06662,-1.73721 -4.77925,-0.2335 -1.55453,1.3649 -1.70062,1.88202 -1.70062,6.01995 v 3.71731 h -0.79375 -0.79375 z m 14.67235,7.81723 c -0.64153,-0.64153 -0.64943,-0.70748 -0.64943,-5.42395 v -4.77453 h -0.79375 c -0.67028,0 -0.79375,-0.10289 -0.79375,-0.66146 0,-0.55856 0.12347,-0.66146 0.79375,-0.66146 h 0.79375 v -1.98437 -1.98438 h 0.79375 0.79375 v 1.98438 1.98437 h 1.32291 c 1.23473,0 1.32292,0.0441 1.32292,0.66146 0,0.61736 -0.0882,0.66146 -1.32292,0.66146 h -1.32291 v 4.35953 c 0,4.29618 0.009,4.3655 0.62796,4.77098 0.44949,0.29451 0.93828,0.36184 1.71979,0.23686 0.99531,-0.15915 1.09183,-0.12424 1.09183,0.39495 0,1.22097 -3.26731,1.54651 -4.37765,0.43616 z M 80.016125,161.82168 c -0.103154,-0.10316 -0.18755,-0.64396 -0.18755,-1.20179 0,-0.95478 0.04742,-1.01424 0.808963,-1.01424 0.788093,0 0.806863,0.029 0.727604,1.12448 -0.06494,0.8976 -0.190325,1.14008 -0.621413,1.20179 -0.297029,0.0425 -0.624451,-0.007 -0.727604,-0.11024 z m 42.322175,-0.0112 c -0.097,-0.097 -0.17639,-0.63279 -0.17639,-1.19062 0,-0.95054 0.0498,-1.01424 0.79375,-1.01424 0.76435,0 0.79375,0.0441 0.79375,1.19063 0,1.07093 -0.0621,1.19062 -0.61736,1.19062 -0.33955,0 -0.69674,-0.0794 -0.79375,-0.17639 z M 69.127809,143.66269 c -0.58691,-0.51844 -0.890408,-1.54718 -2.399724,-8.13412 -0.950311,-4.14735 -2.085877,-9.08844 -2.523482,-10.98021 -0.822383,-3.55517 -1.72163,-7.4586 -3.139088,-13.62604 -1.911236,-8.31592 -1.5763,-7.4117 -3.065065,-8.27472 -2.812743,-1.63051 -4.589082,-4.160332 -5.182468,-7.38076 -0.578475,-3.139488 0.53412,-6.488811 2.943283,-8.860386 l 1.331037,-1.310269 -0.40191,-1.705163 c -0.543748,-2.306926 -0.511151,-4.53127 0.101512,-6.92676 0.688997,-2.693956 1.889694,-4.754314 3.972653,-6.816945 2.928964,-2.900381 6.154296,-4.233333 10.243354,-4.233333 h 2.180659 l 0.798216,-1.160169 c 2.776469,-4.035458 8.01293,-5.308026 12.621096,-3.067185 1.427568,0.694193 3.251417,2.289583 3.96058,3.464465 0.150945,0.250076 1.02752,0.514665 2.356988,0.711446 3.857074,0.570905 7.86537,3.226443 9.76644,6.470372 0.65506,1.117775 0.7924,1.206146 2.34386,1.508112 3.93474,0.765829 6.63378,3.356639 8.61444,8.269002 0.15921,0.394856 0.74049,1.003173 1.29174,1.351817 1.0613,0.671232 2.20407,1.712002 3.18333,2.899206 0.46194,0.560025 0.82384,0.719601 1.63201,0.719601 1.23073,0 1.87547,-0.211056 1.87547,-0.613942 0,-0.161007 0.4691,-1.785379 1.04244,-3.609713 0.57334,-1.824334 1.59482,-5.073013 2.26996,-7.219286 1.31485,-4.179896 1.66502,-4.69664 3.18264,-4.69664 1.02717,0 1.97163,0.947208 1.97163,1.977369 0,0.413951 -0.6453,2.787528 -1.434,5.274614 -1.73203,5.46177 -2.53475,8.180657 -2.53475,8.585396 0,0.211627 1.07058,0.302204 3.57187,0.302204 4.17763,0 4.34066,0.0831 5.04064,2.569269 0.23719,0.842475 0.6586,2.288455 0.93646,3.21329 0.75034,2.49746 0.67883,3.292274 -0.37664,4.186201 l -0.88183,0.746865 -0.3099,5.159372 c -0.17044,2.83766 -0.55018,9.56469 -0.84386,14.94896 -0.29368,5.38427 -0.7099,12.46176 -0.92494,15.72775 -0.21503,3.26599 -0.39163,6.5402 -0.39245,7.27604 -0.002,1.96453 -0.4138,3.18542 -1.19383,3.54083 -0.48639,0.22161 -8.7456,0.30334 -30.810504,0.30486 l -30.145987,0.002 -0.67188,-0.59349 z m 6.630847,-4.36381 c -0.07877,-0.40018 -0.383111,-2.98979 -0.676323,-5.75469 -2.324589,-21.92018 -3.183294,-29.53868 -3.361986,-29.82781 -0.141155,-0.2284 -7.598389,-0.28258 -7.824115,-0.0569 -0.08005,0.08 -0.03798,0.58607 0.09349,1.12448 0.131463,0.53842 0.528116,2.2291 0.881451,3.75707 0.353333,1.52797 1.056492,4.56406 1.562576,6.74688 0.506085,2.18281 1.947164,8.43359 3.202401,13.89062 1.255236,5.45703 2.343658,10.13023 2.418709,10.3849 0.113168,0.38397 0.453184,0.46302 1.991739,0.46302 h 1.855277 z m 8.303252,-17.53572 v -18.26332 l -3.902604,0.0732 -3.902604,0.0732 0.08118,1.19062 c 0.04465,0.65485 0.256415,2.73844 0.47059,4.63021 0.383577,3.38811 1.035455,9.4751 2.351815,21.96042 0.368224,3.4925 0.736053,6.85601 0.817396,7.47448 l 0.1479,1.12448 h 1.968161 1.968164 z m 8.322921,17.66801 c 0.072,-0.32742 0.433681,-3.45281 0.803728,-6.94531 0.370046,-3.4925 0.84801,-7.83828 1.062146,-9.65729 0.214135,-1.81901 0.628782,-5.60742 0.921438,-8.41868 0.292652,-2.81127 0.668557,-6.22179 0.835342,-7.57893 0.166783,-1.35715 0.229902,-2.65866 0.140261,-2.89226 -0.24234,-0.63153 -7.449712,-0.63734 -7.691903,-0.006 -0.220028,0.57338 -0.204587,35.69722 0.01579,35.9176 0.09701,0.097 0.987714,0.17639 1.979332,0.17639 1.654543,0 1.813722,-0.049 1.933866,-0.59532 z m 8.081241,0.51516 c 0,-0.0441 0.35949,-1.64624 0.79885,-3.56033 l 0.79885,-3.48016 -0.39945,-7.48603 c -0.71339,-13.3696 -0.96109,-17.26624 -1.13183,-17.80478 -0.0923,-0.29104 -0.42876,1.91161 -0.74776,4.89479 -0.318995,2.98318 -0.896503,8.40052 -1.283351,12.03854 -0.386847,3.63802 -0.876218,8.04333 -1.087493,9.78958 -0.211272,1.74625 -0.4485,3.74055 -0.527169,4.43178 l -0.143036,1.25677 h 1.861198 c 1.023657,0 1.861191,-0.0361 1.861191,-0.0802 z m 27.12168,-0.25057 c 0.0647,-0.1819 0.36203,-4.79558 0.66081,-10.25261 0.29878,-5.45703 0.77402,-13.67234 1.05608,-18.25625 0.28206,-4.5839 0.58928,-9.61429 0.68272,-11.17864 l 0.16988,-2.844273 h -12.8612 -12.86122 v 0.868002 c 0,1.201341 1.01669,19.302681 1.18469,21.092411 0.0751,0.80037 0.31422,4.84849 0.53131,8.99584 0.21709,4.14734 0.46627,8.52289 0.55374,9.72343 l 0.15902,2.18282 h 10.3033 c 8.00355,0 10.32954,-0.0738 10.42087,-0.33073 z M 99.936908,98.272078 c 0,-0.812779 -0.153366,-1.121966 -0.790001,-1.592649 -0.434501,-0.321241 -0.86202,-0.871017 -0.950042,-1.221722 -0.224044,-0.892667 1.655016,-7.529208 2.344885,-8.281741 0.53164,-0.579935 0.68464,-0.595313 5.92357,-0.595313 2.95781,0 5.37752,-0.0893 5.37712,-0.198437 -2.6e-4,-0.109141 -0.44687,-0.436563 -0.99218,-0.727604 -0.79437,-0.423966 -1.0364,-0.739572 -1.21742,-1.5875 -0.89246,-4.180361 -3.5857,-6.746875 -7.08001,-6.746875 -1.72619,0 -2.23593,-0.362101 -3.164234,-2.247747 -1.773126,-3.60173 -5.46976,-5.748954 -9.731523,-5.652648 -1.33513,0.03017 -1.845598,-0.370091 -2.748238,-2.154926 -0.350713,-0.693483 -1.072356,-1.512064 -1.745239,-1.979681 -1.015481,-0.705704 -1.365004,-0.79729 -3.042708,-0.79729 -1.669209,0 -2.035321,0.09474 -3.067437,0.79375 -0.924134,0.62588 -1.359492,1.199436 -2.058532,2.711979 -0.487595,1.055026 -1.031759,1.938745 -1.209252,1.96382 -0.177495,0.02508 -1.989592,0.05484 -4.026884,0.06615 -3.543631,0.01966 -3.772969,0.05431 -5.291667,0.799398 -2.061535,1.01141 -3.987337,3.00777 -4.990174,5.173004 -0.710885,1.534877 -0.796782,1.992993 -0.794001,4.234611 0.0027,2.161903 0.102902,2.732731 0.716362,4.08032 0.619559,1.360979 0.674804,1.68325 0.420595,2.453515 -0.19857,0.601674 -0.604375,1.047436 -1.262301,1.386602 -3.588324,1.849806 -4.727001,6.268633 -2.356434,9.144543 1.762474,2.138188 0.03372,1.982922 22.090432,1.984031 l 19.645313,9.89e-4 z M 82.267713,92.785119 c -1.045115,-0.439438 -1.365068,-1.445794 -1.09275,-3.437032 0.750128,-5.485038 5.245642,-9.680295 10.824445,-10.101477 1.59349,-0.120304 1.76675,-0.07938 2.359202,0.557239 1.430171,1.536795 0.334759,3.60159 -1.910934,3.602013 -1.651358,2.65e-4 -4.121018,1.269299 -5.321531,2.734366 -1.03715,1.265706 -1.74132,3.104795 -1.74132,4.547836 0,1.719093 -1.544614,2.758241 -3.117112,2.097055 z M 69.23338,86.133198 c -0.811403,-0.682752 -0.840536,-0.774621 -0.708255,-2.233451 0.168381,-1.856915 1.130983,-4.037513 2.404671,-5.447334 2.027002,-2.243649 6.143654,-3.636815 7.711278,-2.609668 0.940933,0.616524 1.29475,1.638144 0.898578,2.594586 -0.380756,0.919226 -0.729342,1.115007 -2.711312,1.522786 -1.929389,0.396962 -3.490376,1.795981 -3.754162,3.364632 -0.358712,2.133132 -0.679543,2.764438 -1.600449,3.149216 -1.184394,0.494874 -1.261113,0.483204 -2.240349,-0.340767 z m 61.92436,6.285513 c 0,-0.136049 -0.11611,-0.552767 -0.25803,-0.926042 l -0.25804,-0.678682 h -13.47441 -13.47442 l -0.29046,0.833231 c -0.15976,0.458279 -0.29047,0.874998 -0.29047,0.926041 0,0.05105 6.31031,0.09281 14.02291,0.09281 8.52126,0 14.02292,-0.09705 14.02292,-0.247358 z"
         id="path3834"
         inkscape:connector-curvature="0" />
      <path
         style="fill:#6e7488;stroke-width:0.26458332"
         d="m 129.30566,181.06851 c -1.11647,-0.61157 -2.38125,-1.75031 -2.38125,-2.14394 0,-0.64877 0.83283,-0.52703 1.81964,0.266 1.84824,1.48528 5.46621,1.40052 6.93455,-0.16246 0.52616,-0.56008 0.64605,-1.00553 0.7278,-2.7043 l 0.0979,-2.03378 -0.75503,0.6974 c -2.31906,2.14202 -5.403,2.05623 -7.55403,-0.21015 -2.12321,-2.23708 -2.12011,-6.53518 0.006,-8.72468 2.21693,-2.2827 5.25698,-2.28882 7.65259,-0.0154 l 0.85989,0.81603 v -1.24253 c 0,-1.15504 0.0474,-1.24253 0.67379,-1.24253 h 0.6738 l -0.0785,6.98746 -0.0785,6.98745 -0.8218,1.01619 c -1.2853,1.58931 -2.2579,2.02881 -4.71172,2.12909 -1.72475,0.0705 -2.31889,-0.0109 -3.06544,-0.41983 z m 5.12345,-6.21725 c 1.63186,-0.68184 2.0203,-1.5049 2.0203,-4.28078 0,-2.28467 -0.0503,-2.51736 -0.71525,-3.30759 -0.86805,-1.03161 -2.07875,-1.57182 -3.52273,-1.57182 -1.48859,0 -2.50379,0.59551 -3.27265,1.9197 -1.38373,2.38321 -1.12565,4.5949 0.75573,6.47627 1.03745,1.03746 1.23984,1.12903 2.49525,1.12903 0.75142,0 1.75913,-0.16417 2.23935,-0.36481 z m -76.466181,1.70976 c -4.432506,-1.10951 -6.086515,-7.21045 -2.818228,-10.39525 4.231608,-4.12352 10.912319,-0.51646 10.023322,5.41179 -0.496494,3.31085 -4.054843,5.77201 -7.205094,4.98346 z m 3.794125,-2.1412 c 2.534785,-1.8641 2.548067,-6.06834 0.02506,-7.93367 -1.232712,-0.91138 -3.320034,-1.04179 -4.546132,-0.28402 -2.075457,1.28271 -2.868988,4.37384 -1.702141,6.63055 1.275911,2.46765 4.060293,3.17776 6.223204,1.58714 z m 27.044216,2.13326 c -2.75209,-0.52595 -4.973857,-3.75102 -4.662482,-6.76796 0.352576,-3.41614 3.090005,-5.65914 6.526316,-5.34755 2.845509,0.25803 4.899599,2.35515 5.236765,5.34648 l 0.135107,1.19869 h -5.224642 -5.224643 l 0.159536,0.59531 c 0.08775,0.32742 0.161166,0.74 0.163153,0.91683 0.0054,0.48142 1.565182,2.16503 2.410997,2.60241 1.573607,0.81375 3.977378,0.28979 5.134038,-1.11907 0.426099,-0.51901 0.651518,-0.60056 1.150152,-0.41611 l 0.620183,0.22942 -0.72041,0.85616 c -1.289365,1.53233 -3.606347,2.3063 -5.70407,1.90539 z m 5.671228,-6.82781 c 0.270245,-0.43726 -0.651878,-2.36322 -1.510205,-3.15422 -2.454087,-2.26161 -6.539161,-0.84599 -7.207917,2.49779 l -0.171114,0.85556 h 4.383082 c 2.410696,0 4.438465,-0.0896 4.506154,-0.19913 z m -60.032365,6.47993 c -0.07045,-0.18358 -0.09648,-3.84475 -0.05784,-8.13593 l 0.07024,-7.80216 0.79375,-0.0704 c 0.884712,-0.0785 0.410441,-0.77032 4.901208,7.14926 1.217506,2.14711 2.303227,3.81398 2.412712,3.70417 0.109486,-0.10981 1.560636,-2.5809 3.224778,-5.49132 2.837111,-4.96183 3.077107,-5.29684 3.850278,-5.37458 l 0.824566,-0.0829 v 8.23642 8.23642 l -0.727605,-0.0837 -0.727604,-0.0837 -0.132291,-6.59543 -0.132292,-6.59543 -2.891181,5.08633 c -2.388483,4.20194 -2.983665,5.07269 -3.423068,5.00793 -0.376181,-0.0555 -1.172179,-1.20148 -2.719156,-3.91486 -2.876176,-5.04479 -3.355703,-5.82084 -3.596763,-5.82084 -0.111168,0 -0.202124,2.91703 -0.202124,6.4823 v 6.48229 h -0.669762 c -0.368369,0 -0.7274,-0.1502 -0.797846,-0.33379 z m 36.446525,-0.37936 c -0.149884,-0.40813 -1.235361,-3.09173 -2.412174,-5.96355 -1.176811,-2.87182 -2.139659,-5.29075 -2.139659,-5.37539 0,-0.0846 0.327422,-0.11622 0.727604,-0.0702 0.774583,0.0891 0.934685,0.42192 3.770312,7.83727 0.509323,1.33191 1.027983,2.39021 1.152578,2.35177 0.124598,-0.0384 0.690269,-1.2563 1.257054,-2.70636 2.955086,-7.56028 2.941243,-7.53126 3.591825,-7.53126 0.902287,0 1.133282,-0.75067 -2.523916,8.20209 -1.49379,3.65677 -1.604285,3.84023 -2.359152,3.91706 -0.660472,0.0672 -0.837205,-0.0426 -1.064472,-0.66146 z m 9.067591,0.39443 c -0.0751,-0.1957 -0.104333,-2.91273 -0.06496,-6.03783 l 0.07158,-5.68199 h 0.661459 0.661458 v 5.95312 5.95313 l -0.596495,0.0847 c -0.328073,0.0466 -0.65794,-0.0754 -0.733039,-0.27113 z m 24.745161,-7.88337 v -8.20208 h 0.62134 c 0.49504,0 1.69175,1.34421 5.88698,6.6126 2.8961,3.63692 5.35493,6.61348 5.46407,6.61458 0.10914,0.001 0.19844,-2.97458 0.19844,-6.6126 v -6.61458 h 0.79757 0.79758 l -0.07,8.13594 -0.07,8.13594 h -0.66146 c -0.54681,0 -1.57868,-1.14653 -5.95312,-6.61459 l -5.29167,-6.61458 -0.0707,6.68073 -0.0707,6.68073 h -0.7892 -0.78921 z m 17.58105,7.86481 c -0.0712,-0.1855 -0.0972,-2.89417 -0.0578,-6.01927 l 0.0716,-5.68199 0.7276,-0.0837 0.72761,-0.0837 v 6.10299 6.10299 h -0.66976 c -0.36837,0 -0.72801,-0.15178 -0.79919,-0.33728 z m 19.31604,0.004 c -0.0704,-0.1834 -0.0964,-3.96364 -0.0578,-8.40052 l 0.0701,-8.06706 0.72761,-0.0837 0.7276,-0.0837 0.008,3.78788 0.008,3.78789 0.54511,-0.73071 c 1.42262,-1.90697 4.85959,-2.72166 6.3931,-1.51541 1.27073,0.99956 1.61895,2.54748 1.6321,7.25504 l 0.0119,4.2515 -0.7276,0.0837 -0.72761,0.0837 -0.002,-3.92017 c -0.002,-4.40583 -0.23856,-5.63872 -1.23394,-6.42169 -1.34574,-1.05856 -3.80045,-0.41036 -5.11458,1.35057 -0.62701,0.84019 -0.66587,1.0965 -0.74623,4.92125 l -0.0848,4.0349 h -0.65114 c -0.35812,0 -0.70872,-0.15006 -0.7791,-0.33347 z m 14.55234,-0.31597 c -0.64153,-0.64153 -0.64943,-0.70748 -0.64943,-5.42395 v -4.77453 h -0.79375 c -0.67028,0 -0.79375,-0.10289 -0.79375,-0.66146 0,-0.55856 0.12347,-0.66146 0.79375,-0.66146 h 0.79375 v -1.98437 -1.98438 h 0.79375 0.79375 v 1.98438 1.98437 h 1.32291 c 1.23473,0 1.32292,0.0441 1.32292,0.66146 0,0.61736 -0.0882,0.66146 -1.32292,0.66146 h -1.32291 v 4.34673 c 0,5.15276 0.0804,5.34107 2.16345,5.06475 1.13135,-0.15008 1.27613,-0.11304 1.27613,0.32652 0,0.64963 -1.05252,1.10992 -2.53802,1.10992 -0.91089,0 -1.3426,-0.15241 -1.83963,-0.64944 z M 79.878748,160.73013 c 0.07129,-0.8614 0.17803,-1.00322 0.809722,-1.0759 0.68819,-0.0792 0.727605,-0.0254 0.727605,0.99218 0,1.02378 -0.03923,1.07591 -0.809723,1.07591 -0.773888,0 -0.806088,-0.0439 -0.727604,-0.99219 z m 42.283162,-0.0661 c 0,-0.99954 0.0441,-1.05834 0.79375,-1.05834 0.74965,0 0.79375,0.0588 0.79375,1.05834 0,0.99953 -0.0441,1.05833 -0.79375,1.05833 -0.74965,0 -0.79375,-0.0588 -0.79375,-1.05833 z m -53.030066,-17.0017 c -0.506609,-0.4505 -0.79224,-1.16577 -1.18776,-2.97438 -0.286414,-1.30969 -0.950444,-4.22672 -1.475621,-6.4823 -0.525179,-2.25557 -1.24016,-5.35119 -1.588847,-6.87916 -0.348686,-1.52797 -1.063061,-4.6236 -1.5875,-6.87917 -0.524438,-2.25557 -1.239501,-5.3512 -1.589032,-6.87917 -0.34953,-1.52797 -0.999259,-4.3688 -1.443844,-6.31296 -0.444587,-1.94417 -0.874877,-3.64251 -0.956204,-3.7741 -0.08132,-0.13158 -0.63255,-0.48652 -1.224944,-0.78874 -1.399728,-0.71408 -3.448561,-2.774286 -4.17494,-4.19811 -0.929783,-1.822521 -1.392828,-4.553929 -1.070779,-6.316308 0.395422,-2.163932 1.677609,-4.597318 3.066631,-5.819986 l 1.186403,-1.044311 -0.447413,-2.525101 c -0.580015,-3.273454 -0.221618,-6.117447 1.125019,-8.927407 2.569199,-5.361019 7.485684,-8.44714 13.457092,-8.44714 h 1.948817 l 0.999514,-1.36161 c 1.193906,-1.626425 3.556998,-3.224411 5.434184,-3.67474 1.731585,-0.415402 4.925989,-0.163934 6.402687,0.504027 1.629664,0.737153 3.250986,2.015416 4.008824,3.160588 0.638117,0.964258 0.770345,1.028686 2.71708,1.323938 3.932571,0.596429 7.533149,2.922084 9.793879,6.325983 0.75472,1.136351 1.08996,1.41201 1.87729,1.543635 4.35161,0.727496 8.10332,4.165788 9.11977,8.357894 0.11056,0.455994 0.5792,0.941332 1.33873,1.386448 0.64275,0.376672 1.75934,1.347624 2.48133,2.157675 1.3103,1.470128 1.31524,1.472673 2.70382,1.391679 l 1.39113,-0.08114 1.00309,-3.175 c 0.55171,-1.74625 1.61865,-5.120675 2.371,-7.498723 0.75234,-2.378046 1.59511,-4.550937 1.87282,-4.828646 0.71172,-0.711727 1.97571,-0.645687 2.7659,0.14451 1.00499,1.004983 1.11985,0.435327 -2.25409,11.179683 -0.69497,2.213152 -1.19911,4.088387 -1.12031,4.167188 0.0788,0.0788 1.71003,0.143279 3.62494,0.143279 4.32905,0 4.24395,-0.06839 5.54668,4.457645 1.18698,4.123867 1.19111,4.582504 0.0492,5.453462 -1.03706,0.791006 -0.89806,-0.43451 -1.7568,15.488888 -0.28645,5.31151 -0.70142,12.5148 -0.92215,16.00729 -0.22073,3.4925 -0.50901,8.31088 -0.64062,10.70751 -0.23301,4.24309 -0.25757,4.37322 -0.93541,4.95627 l -0.69612,0.59877 -30.27323,0.002 -30.273237,0.002 -0.667009,-0.59314 z m 6.725681,-3.83428 c -0.0013,-0.10914 -0.181956,-1.68672 -0.401539,-3.50573 -0.219583,-1.81901 -0.689189,-6.10526 -1.043575,-9.525 -0.354383,-3.41974 -0.822582,-7.70599 -1.040442,-9.525 -0.217861,-1.81901 -0.597265,-5.39089 -0.843122,-7.9375 -0.245853,-2.54661 -0.546515,-4.8981 -0.668133,-5.22552 -0.215339,-0.57973 -0.321279,-0.59531 -4.048517,-0.59531 -2.105067,0 -3.888092,0.0982 -3.962281,0.21825 -0.07419,0.12004 0.04337,0.90087 0.261234,1.73517 0.217868,0.8343 0.682077,2.78992 1.031573,4.34581 0.349499,1.55589 1.064538,4.67436 1.588977,6.92993 0.524438,2.25558 1.238813,5.3512 1.5875,6.87917 0.348686,1.52797 1.063667,4.62359 1.588846,6.87917 0.525177,2.25557 1.189509,5.1726 1.476291,6.48229 0.286782,1.30969 0.573913,2.53008 0.638069,2.71198 0.127455,0.36138 3.839258,0.48941 3.835119,0.13229 z m 8.204383,-18.05781 v -18.25625 h -3.96875 c -2.182812,0 -3.96875,0.0772 -3.96875,0.17163 0,0.16628 1.452922,13.47523 2.263119,20.73045 0.219382,1.96453 0.632785,5.89359 0.918678,8.73125 0.28589,2.83766 0.585306,5.54633 0.665366,6.01927 l 0.145566,0.8599 h 1.972384 1.972387 z m 8.529243,16.66875 c 0.108088,-0.80037 0.49076,-4.25318 0.850384,-7.67292 0.98788,-9.39397 2.230589,-20.77502 2.527128,-23.1441 0.145243,-1.16035 0.264078,-2.56252 0.264078,-3.11593 v -1.0062 l -3.902604,0.0732 -3.902604,0.0732 -0.06851,17.85937 c -0.03768,9.82266 -0.0096,18.01346 0.06232,18.20178 0.09441,0.24708 0.665673,0.32073 2.052061,0.26458 l 1.921227,-0.0778 z m 8.102189,0.67433 c 0.13867,-0.50225 0.51051,-2.13936 0.82631,-3.63802 l 0.57417,-2.72485 -0.68539,-12.53186 c -0.37696,-6.89252 -0.79911,-12.72658 -0.93812,-12.96459 -0.1957,-0.33508 -0.25454,-0.22532 -0.26077,0.48642 -0.004,0.50552 -0.360733,4.0774 -0.791789,7.9375 -1.25529,11.24105 -2.655843,23.99071 -2.655843,24.17693 0,0.0944 0.827842,0.17164 1.839648,0.17164 h 1.839644 z m 27.02482,0.67445 c 0,-0.78712 1.34163,-24.25344 1.46122,-25.55816 0.16338,-1.7824 0.91925,-15.209704 0.91972,-16.338019 l 3.1e-4,-0.727604 h -12.83229 -12.8323 v 1.059121 c 0,1.453357 0.70851,14.448372 1.18285,21.695042 0.21431,3.27422 0.5144,8.39391 0.66686,11.37709 0.15247,2.98317 0.34391,6.1681 0.42543,7.0776 l 0.14823,1.65365 h 10.42998 c 6.02342,0 10.42999,-0.10086 10.42999,-0.23872 z M 99.936908,98.132499 c 0,-0.969737 -0.103394,-1.195266 -0.665356,-1.451313 -1.342398,-0.611638 -1.375174,-1.289461 -0.255153,-5.276475 0.561573,-1.999078 1.256931,-3.90121 1.545891,-4.228745 0.51248,-0.580901 0.66018,-0.595688 6.10147,-0.610873 4.43558,-0.01238 5.46933,-0.08003 5.05346,-0.330729 -1.06503,-0.642043 -2.25531,-2.000046 -2.25531,-2.573118 0,-1.952215 -1.75783,-4.554312 -3.77015,-5.580922 -0.58293,-0.297389 -1.72929,-0.599681 -2.54747,-0.671759 -2.32606,-0.204917 -2.85013,-0.503957 -3.568491,-2.036254 -0.350509,-0.747652 -0.944956,-1.764739 -1.320993,-2.260198 -1.597281,-2.104544 -5.091673,-3.729376 -8.020455,-3.729376 -1.827434,0 -2.330897,-0.276564 -3.026436,-1.662494 -0.307941,-0.613598 -0.814345,-1.395108 -1.125344,-1.736693 -1.505294,-1.653326 -4.292503,-2.112314 -6.458821,-1.063617 -1.217795,0.589523 -2.605638,2.222291 -2.88014,3.388421 -0.224602,0.954143 -1.130226,1.868133 -1.851036,1.868133 -0.335735,0 -1.432695,-0.141005 -2.437688,-0.313341 -4.363371,-0.748234 -8.730893,1.598208 -10.810505,5.807922 -0.9487,1.920433 -0.997434,2.145466 -0.984684,4.54678 0.01135,2.1381 0.122248,2.777058 0.721596,4.157747 0.602768,1.388559 0.665422,1.754058 0.42092,2.455434 -0.171352,0.49154 -0.622649,0.992539 -1.11847,1.241644 -1.513597,0.760442 -3.067923,2.504533 -3.485666,3.911219 -0.213537,0.719064 -0.387588,1.553671 -0.386776,1.854679 0.0048,1.775518 1.307788,3.898913 3.041224,4.956037 0.750255,0.457536 1.870464,0.484122 20.43907,0.485056 l 19.645313,9.89e-4 z m -18.246429,-5.85285 c -0.551272,-0.586804 -0.598548,-0.833226 -0.479377,-2.498786 0.374248,-5.230622 4.649716,-9.638983 10.111544,-10.425838 1.85061,-0.266607 2.050915,-0.247927 2.726127,0.254244 0.54869,0.408072 0.748501,0.805889 0.808651,1.610005 0.106773,1.427329 -0.787948,2.186379 -2.577163,2.186379 -3.385455,0 -6.895436,3.64221 -6.895436,7.155202 0,2.158846 -2.283058,3.22104 -3.694346,1.718794 z m -12.71769,-6.4266 c -0.463722,-0.58634 -0.548378,-0.959321 -0.436038,-1.921102 0.515186,-4.410713 3.97248,-7.946248 8.196733,-8.382228 1.220317,-0.125947 1.495957,-0.06276 2.102919,0.482055 0.658035,0.590664 0.829625,1.074621 0.758055,2.13805 -0.05205,0.773462 -1.08694,1.481752 -2.436111,1.667309 -2.358435,0.324369 -4.013507,1.979441 -4.337876,4.337876 -0.23165,1.684311 -0.90434,2.405644 -2.243415,2.405644 -0.806463,0 -1.153194,-0.157257 -1.604267,-0.727604 z m 62.184951,6.565662 c 0,-0.136049 -0.11611,-0.552767 -0.25803,-0.926042 l -0.25804,-0.678682 h -13.48468 c -7.41658,0 -13.53478,0.0893 -13.59601,0.198437 -0.0612,0.109141 -0.18959,0.52586 -0.28524,0.926042 l -0.17391,0.727604 h 14.02795 c 8.52438,0 14.02796,-0.09705 14.02796,-0.247359 z"
         id="path3832"
         inkscape:connector-curvature="0" />
      <path
         style="fill:#4e546d;stroke-width:0.26458332"
         d="m 129.43795,181.08088 c -0.58208,-0.27853 -1.39038,-0.8602 -1.79622,-1.2926 -0.64882,-0.69127 -0.68909,-0.82668 -0.33365,-1.12167 0.33721,-0.27986 0.55481,-0.20328 1.31234,0.46184 2.05231,1.80195 5.71411,1.6153 7.27646,-0.3709 0.44168,-0.56151 0.55253,-1.07676 0.55253,-2.56833 v -1.8659 l -0.72761,0.68075 c -1.72741,1.61619 -3.68962,1.94866 -5.75922,0.97584 -2.20156,-1.03486 -3.30631,-2.90596 -3.29695,-5.58399 0.0124,-3.53596 2.29507,-6.00619 5.56479,-6.02196 1.24059,-0.006 3.09014,0.91888 3.9544,1.97739 0.36855,0.45138 0.40632,0.40267 0.52917,-0.68242 0.10886,-0.96153 0.23773,-1.18346 0.72761,-1.25303 l 0.59531,-0.0846 -0.004,6.69913 c -0.004,6.44824 -0.0266,6.73836 -0.59756,7.74646 -0.32626,0.57603 -1.09376,1.39914 -1.70555,1.82912 -0.95278,0.66964 -1.40793,0.7961 -3.17276,0.88151 -1.63205,0.079 -2.28042,-0.006 -3.11873,-0.40669 z m 5.14915,-6.2564 c 1.53196,-0.7922 1.86231,-1.54681 1.86231,-4.254 0,-2.26519 -0.0542,-2.52203 -0.69298,-3.28111 -0.9563,-1.13651 -1.96411,-1.5983 -3.48809,-1.5983 -2.45763,0 -4.15588,1.94864 -4.15055,4.7625 0.005,2.86447 1.72181,4.7625 4.30672,4.7625 0.77294,0 1.74611,-0.17622 2.16259,-0.39159 z M 34.584825,168.33773 v -8.23806 l 0.711025,0.0837 c 0.53149,0.0626 0.909858,0.41776 1.498479,1.40664 0.872011,1.46497 3.517936,6.09147 4.748565,8.30306 0.790398,1.42043 0.793388,1.42247 1.23243,0.84042 0.24206,-0.32091 1.721859,-2.83689 3.288443,-5.59108 2.683944,-4.7186 2.893216,-5.00761 3.62602,-5.00761 h 0.777684 l -0.06997,8.13594 -0.06997,8.13594 h -0.661458 -0.661459 l -0.132291,-6.61026 -0.132292,-6.61025 -2.910417,5.09433 c -2.294704,4.0166 -3.015062,5.07918 -3.405066,5.02275 -0.336387,-0.0487 -1.394552,-1.65764 -3.307292,-5.02881 -1.546953,-2.72647 -2.899859,-4.9589 -3.006457,-4.96093 -0.106598,-0.002 -0.225661,2.94309 -0.264583,6.54473 l -0.07077,6.54844 -0.595313,0.0845 -0.595312,0.0846 z m 21.986279,7.58264 c -2.171409,-1.16142 -3.393297,-3.7244 -3.032058,-6.35993 0.483044,-3.52419 3.875407,-5.84798 7.228085,-4.95127 5.147152,1.37665 6.028013,8.68822 1.353241,11.23254 -1.713346,0.93253 -3.895053,0.96345 -5.549268,0.0787 z m 5.02824,-1.30175 c 1.17176,-0.77869 2.089647,-2.60821 2.089647,-4.16505 0,-2.70771 -1.883555,-4.7625 -4.365625,-4.7625 -1.74721,0 -2.955634,0.76067 -3.770312,2.3733 -1.075997,2.12991 -0.645888,4.71428 1.037725,6.23532 0.913614,0.8254 1.167971,0.91638 2.561931,0.91638 1.164754,0 1.770015,-0.1478 2.446634,-0.59745 z m 7.654285,-2.90828 c -1.060397,-2.65575 -2.076315,-5.1263 -2.257589,-5.4901 -0.181277,-0.36381 -0.415076,-0.93831 -0.519552,-1.27668 -0.170323,-0.55163 -0.11494,-0.60632 0.53585,-0.52917 0.770284,0.0913 0.899287,0.36006 3.822464,7.96271 0.490702,1.27622 1.010629,2.28092 1.155396,2.23266 0.259953,-0.0866 0.836412,-1.44544 3.082153,-7.26504 0.859935,-2.22844 1.265573,-2.97657 1.613897,-2.97657 0.255894,0 0.527876,0.10131 0.604401,0.22513 0.07653,0.12382 -0.640009,2.11812 -1.592302,4.43178 -0.952294,2.31365 -1.984312,4.86148 -2.293374,5.66184 -0.614577,1.59153 -0.840904,1.84196 -1.670185,1.84804 -0.471451,0.003 -0.837959,-0.70923 -2.481159,-4.8246 z m 10.70062,4.50993 c -0.0751,-0.1957 -0.104333,-2.91273 -0.06496,-6.03783 l 0.07158,-5.68199 h 0.661459 0.661458 v 5.95312 5.95313 l -0.596495,0.0847 c -0.328073,0.0466 -0.65794,-0.0754 -0.733039,-0.27113 z m 7.121165,-0.54118 c -2.839762,-1.90829 -3.74591,-5.16013 -2.248932,-8.07064 1.039699,-2.02144 3.093242,-3.24688 5.420255,-3.23449 2.516677,0.0134 4.920204,2.03946 5.450657,4.59463 0.168685,0.81255 0.232055,1.59814 0.140824,1.74576 -0.102766,0.16628 -2.085083,0.26839 -5.210415,0.26839 h -5.044541 l 0.171114,0.85556 c 0.258318,1.2916 1.407562,2.84428 2.417614,3.26631 1.833751,0.76619 4.287907,0.29969 5.302912,-1.00801 0.383974,-0.4947 0.663535,-0.61525 1.138965,-0.49116 l 0.630084,0.16447 -0.702405,0.83476 c -1.047499,1.24488 -2.679975,1.93432 -4.580147,1.93432 -1.37342,0 -1.791911,-0.1247 -2.885985,-0.8599 z m 7.426757,-6.00183 c 0.278825,-0.45115 -0.692026,-2.38017 -1.598446,-3.17602 -2.108647,-1.85142 -5.592284,-1.13857 -6.734723,1.37811 -0.958104,2.1106 -1.080881,2.04505 3.830415,2.04505 2.409955,0 4.418132,-0.11022 4.502754,-0.24714 z m 10.197239,-1.34036 v -8.20208 h 0.60504 c 0.47404,0 1.74321,1.43225 5.86142,6.61458 2.891,3.63802 5.35717,6.61459 5.48037,6.61459 0.1232,0 0.224,-2.98447 0.224,-6.63216 v -6.63216 l 0.72761,0.0837 0.7276,0.0837 v 8.06979 c 0,7.99915 -0.005,8.07049 -0.55624,8.14922 -0.65374,0.0933 -0.51641,0.24801 -6.7198,-7.56777 l -4.63021,-5.8337 -0.0706,6.72717 -0.0706,6.72717 h -0.78929 -0.78928 z m 17.58105,7.86481 c -0.0712,-0.1855 -0.0972,-2.89417 -0.0578,-6.01927 l 0.0716,-5.68199 0.7276,-0.0837 0.72761,-0.0837 v 6.10299 6.10299 h -0.66976 c -0.36837,0 -0.72801,-0.15178 -0.79919,-0.33728 z m 19.46061,-8.12939 v -8.46667 h 0.66146 0.66146 v 3.75587 3.75587 l 0.87143,-0.95137 c 2.14029,-2.33666 5.75533,-2.40887 6.99545,-0.13974 0.38765,0.70931 0.48238,1.68015 0.55466,5.68406 l 0.0871,4.82865 h -0.68247 -0.68247 v -4.10954 c 0,-4.43382 -0.23365,-5.52232 -1.35384,-6.30693 -1.38656,-0.97118 -3.72241,-0.29573 -4.97975,1.43998 l -0.81016,1.11838 v 3.92905 3.92906 h -0.66146 -0.66146 z m 14.4693,7.72458 -0.71096,-0.74208 v -4.68187 -4.68188 h -0.79375 c -0.67028,0 -0.79375,-0.10289 -0.79375,-0.66146 0,-0.55856 0.12347,-0.66146 0.79375,-0.66146 h 0.79375 v -2.00195 -2.00194 l 0.7276,0.0837 c 0.71021,0.0817 0.72946,0.12925 0.80506,1.98791 l 0.0774,1.90419 1.24547,0.0802 c 1.06091,0.0683 1.25799,0.1684 1.33001,0.6755 0.0781,0.55019 -0.0171,0.59531 -1.25677,0.59531 h -1.34132 v 4.48861 c 0,5.0973 0.0225,5.14862 2.1877,4.98662 0.85152,-0.0637 1.12301,0.0161 1.19093,0.34991 0.10622,0.52212 -1.1542,1.02278 -2.57486,1.02278 -0.71668,0 -1.15467,-0.19343 -1.68031,-0.74209 z M 79.878748,160.73013 c 0.07118,-0.86004 0.170211,-0.99219 0.743577,-0.99219 0.573365,0 0.672393,0.13215 0.743577,0.99219 0.0788,0.95212 0.04877,0.99219 -0.743577,0.99219 -0.792345,0 -0.822378,-0.0401 -0.743577,-0.99219 z m 42.333332,0 c 0.0713,-0.8614 0.17803,-1.00322 0.80972,-1.0759 0.68819,-0.0792 0.72761,-0.0254 0.72761,0.99218 0,1.02378 -0.0392,1.07591 -0.80972,1.07591 -0.77389,0 -0.80609,-0.0439 -0.72761,-0.99219 z M 69.593266,143.99546 c -0.772398,-0.31397 -1.065133,-0.92356 -1.54818,-3.22391 -0.223557,-1.06463 -0.689247,-3.12631 -1.034865,-4.58152 -0.345617,-1.45521 -1.011375,-4.31271 -1.47946,-6.35 -0.468087,-2.03729 -1.182309,-5.13292 -1.587158,-6.87917 -0.404853,-1.74625 -1.117659,-4.84187 -1.584016,-6.87917 -0.466357,-2.03729 -1.118245,-4.83526 -1.448639,-6.2177 -0.330393,-1.38245 -0.801645,-3.43866 -1.047226,-4.56935 -0.442097,-2.03548 -0.458742,-2.06221 -1.684057,-2.70357 -2.440342,-1.27735 -4.045783,-3.172516 -4.834646,-5.707137 -1.220007,-3.919887 -0.0049,-8.477401 2.876465,-10.788922 l 0.953349,-0.764805 -0.35188,-1.557589 c -0.479483,-2.122434 -0.421611,-5.819526 0.120494,-7.697576 1.263026,-4.375589 4.585875,-7.972483 8.994503,-9.736301 1.536271,-0.614638 2.319626,-0.753692 4.593979,-0.81548 l 2.741898,-0.07449 0.67496,-1.009579 c 2.921413,-4.369721 9.006271,-5.605296 13.425392,-2.726126 0.887508,0.578236 2.006298,1.575377 2.486202,2.215872 0.843299,1.125495 0.940348,1.174525 2.894852,1.462498 3.81558,0.562184 7.572907,2.981216 9.594887,6.177359 1.07582,1.700551 1.04664,1.680051 2.66463,1.871676 3.31618,0.392752 7.32507,3.995697 8.18673,7.357739 0.30578,1.193086 0.51245,1.457177 1.85245,2.367159 0.82956,0.563337 1.95353,1.567614 2.49772,2.231728 0.98207,1.198486 1.00044,1.206897 2.46712,1.129372 l 1.47767,-0.0781 0.83604,-2.645834 c 0.45981,-1.455208 1.33208,-4.253177 1.93837,-6.217708 1.584,-5.132546 1.86724,-5.883325 2.47046,-6.548437 0.72217,-0.796259 1.88145,-0.773094 2.70866,0.05412 0.73902,0.739013 0.81369,1.547545 0.27549,2.983233 -0.43402,1.157819 -3.85939,12.120279 -3.85939,12.351512 0,0.08547 1.58086,0.155405 3.51301,0.155405 2.6927,0 3.64516,0.09257 4.07899,0.396433 0.63951,0.447932 1.05876,1.504011 2.08826,5.260372 0.8038,2.932838 0.71333,3.76727 -0.46992,4.334389 -0.84836,0.406609 -0.80493,0.0021 -1.54126,14.350477 -0.28752,5.60255 -0.64342,11.7938 -0.79089,13.75833 -0.14747,1.96453 -0.44065,6.82951 -0.6515,10.81107 -0.43499,8.21374 -0.47581,8.36573 -2.31906,8.63394 -0.62123,0.0904 -6.72544,0.11314 -13.56492,0.0505 -6.83948,-0.0626 -12.55448,-0.11087 -12.7,-0.10731 -6.202068,0.1518 -33.506854,0.0927 -33.915514,-0.0734 z m 6.261299,-4.2997 c -0.0029,-0.1819 -0.187132,-1.93808 -0.409419,-3.90261 -0.544536,-4.81248 -1.784337,-16.38523 -2.621923,-24.47395 -0.376716,-3.63803 -0.742828,-6.88248 -0.813583,-7.2099 -0.126675,-0.58619 -0.19145,-0.59531 -4.224647,-0.59531 -2.654269,0 -4.096002,0.0967 -4.096002,0.27464 0,0.15105 0.346459,1.72863 0.769909,3.50573 0.423449,1.77709 1.153041,4.89796 1.621313,6.93525 0.468276,2.03729 1.182651,5.13292 1.5875,6.87917 0.404853,1.74625 1.119606,4.84187 1.588344,6.87916 0.468739,2.0373 1.253374,5.39139 1.743636,7.45355 0.49026,2.06216 0.891382,3.93739 0.891382,4.16719 0,0.34355 0.352689,0.41781 1.984375,0.41781 1.413917,0 1.982864,-0.0951 1.979115,-0.33073 z m 8.207343,-17.92552 v -18.25625 h -3.96875 c -2.182812,0 -3.968358,0.0893 -3.967882,0.19843 0.0026,0.5959 0.839338,8.67712 1.061556,10.25261 0.143676,1.01864 0.571725,4.82864 0.951219,8.46666 0.736457,7.06004 1.873793,17.41915 1.924487,17.52865 0.01685,0.0364 0.923589,0.0661 2.014995,0.0661 h 1.984375 z m 8.575053,16.99948 c 0.08693,-0.69123 0.39628,-3.69756 0.687454,-6.68073 0.291176,-2.98318 0.582956,-5.66209 0.648404,-5.95313 0.06544,-0.29104 0.36432,-2.96995 0.664165,-5.95312 0.299847,-2.98318 0.775956,-7.32896 1.058023,-9.6573 0.282067,-2.32833 0.548214,-4.82864 0.591437,-5.55624 l 0.07859,-1.32292 -4.034896,-0.073 -4.034896,-0.073 v 18.26314 18.26315 h 2.091838 2.091839 z m 8.768259,-2.53161 c 0.7716,-3.39774 0.81476,-3.84645 0.61078,-6.35 -0.12071,-1.48166 -0.45104,-7.18433 -0.73404,-12.6726 -0.28301,-5.48828 -0.63827,-10.19125 -0.78947,-10.45105 -0.22043,-0.37874 -0.27814,-0.2364 -0.29121,0.71828 -0.009,0.65484 -0.19381,2.61937 -0.410777,4.36562 -0.216966,1.74625 -0.68799,6.0325 -1.046723,9.525 -0.358733,3.4925 -0.772022,7.18344 -0.918422,8.20208 -0.23501,1.63523 -1.06345,9.60848 -1.06345,10.23512 0,0.13151 0.857933,0.20413 1.906513,0.16137 l 1.906519,-0.0777 z m 26.42184,2.13473 c 0.0831,-0.9095 0.33271,-5.28505 0.55477,-9.72344 0.22207,-4.43838 0.52056,-9.49854 0.66333,-11.24479 0.28348,-3.46741 1.05425,-17.499037 1.05425,-19.192363 v -1.053295 l -12.89844,0.06866 -12.89844,0.06866 0.0699,1.190625 c 0.0385,0.654844 0.36939,6.786563 0.73541,13.626033 0.36603,6.83948 0.71293,12.61402 0.7709,12.8323 0.058,0.21828 0.2382,3.3139 0.40051,6.87916 0.16232,3.56526 0.3549,6.86925 0.42796,7.34219 l 0.13282,0.8599 h 10.418 10.41799 z M 99.936908,98.096823 c 0,-1.037072 -0.09456,-1.232728 -0.762749,-1.578264 -0.974796,-0.504086 -1.163703,-1.292939 -0.703154,-2.936279 0.202399,-0.722196 0.662591,-2.379816 1.022652,-3.683598 0.948483,-3.434464 0.695143,-3.318029 7.219433,-3.318029 2.96706,0 5.39465,-0.104619 5.39465,-0.232484 0,-0.127865 -0.34858,-0.37687 -0.77462,-0.553341 -1.14207,-0.473062 -1.57198,-1.07591 -1.86351,-2.613126 -0.65262,-3.441271 -2.8738,-5.439579 -6.49803,-5.846019 -1.09189,-0.122452 -2.17575,-0.380735 -2.40858,-0.573966 -0.23283,-0.19323 -0.734576,-1.009817 -1.114989,-1.814634 -0.895625,-1.894819 -2.490613,-3.4724 -4.574006,-4.524095 -1.362852,-0.687967 -2.078519,-0.86587 -3.924355,-0.975532 -2.699689,-0.160393 -3.107066,-0.340934 -3.626879,-1.60737 -0.462011,-1.125611 -1.756646,-2.571543 -2.784703,-3.110132 -1.065742,-0.558332 -3.731167,-0.479219 -4.959025,0.147188 -1.278892,0.652441 -2.490528,2.099897 -2.898989,3.463218 -0.176501,0.5891 -0.607962,1.237816 -0.989579,1.487864 -0.588076,0.385323 -0.874416,0.402497 -2.187799,0.131222 -2.342177,-0.483769 -4.052147,-0.384849 -5.996152,0.346872 -2.863271,1.077732 -4.615074,2.660412 -6.000128,5.420854 -0.807305,1.608982 -0.860113,1.885138 -0.860113,4.497917 0,2.374808 0.08744,2.950054 0.595313,3.916315 0.757126,1.440492 0.764058,2.622397 0.02003,3.414384 -0.316409,0.336802 -0.706,0.612365 -0.865759,0.612365 -0.554386,0 -2.281293,1.644203 -2.804911,2.67058 -1.466652,2.87487 -0.57018,6.379792 2.004822,7.838226 l 1.05051,0.59499 19.645312,0.0044 19.64531,0.0043 z m -18.237047,-5.86331 c -0.672525,-0.854977 -0.714589,-2.350336 -0.122308,-4.348067 0.620262,-2.092111 1.233921,-3.168626 2.754939,-4.832861 2.116489,-2.315778 4.23,-3.34524 7.716652,-3.758684 1.382636,-0.163949 1.560037,-0.123362 2.182813,0.499415 0.805042,0.805042 0.888775,1.970338 0.202483,2.817876 -0.362731,0.447952 -0.88001,0.631078 -2.182813,0.772763 -3.558336,0.386977 -6.286158,2.871478 -6.751195,6.14898 -0.385321,2.715699 -0.879168,3.397718 -2.46026,3.397718 -0.540409,0 -0.96611,-0.221422 -1.340311,-0.69714 z M 68.970874,85.720758 c -0.405921,-0.657133 -0.491469,-1.109451 -0.362794,-1.91823 0.740283,-4.652975 3.595756,-7.512632 8.177786,-8.189764 0.796663,-0.117732 1.270942,-0.02508 1.918229,0.374772 0.734891,0.453953 0.859896,0.682799 0.859896,1.574191 0,1.28886 -0.784452,1.998927 -2.491054,2.254848 -2.211491,0.331634 -3.94139,2.061533 -4.273024,4.273024 -0.255921,1.706602 -0.965988,2.491054 -2.254848,2.491054 -0.891392,0 -1.120238,-0.125005 -1.574191,-0.859895 z m 62.183256,6.614583 c -0.002,-0.181901 -0.0754,-0.59862 -0.16315,-0.926042 l -0.15954,-0.595312 h -13.57957 c -7.46876,0 -13.62966,0.0893 -13.69089,0.198437 -0.0612,0.109141 -0.18959,0.52586 -0.28524,0.926042 l -0.17391,0.727604 h 14.02795 c 11.04791,0 14.02719,-0.07026 14.02435,-0.330729 z"
         id="path3830"
         inkscape:connector-curvature="0" />
      <path
         style="fill:#32485c;stroke-width:0.26458332"
         d="m 129.43795,180.9539 c -0.7276,-0.35239 -1.59477,-0.93626 -1.92704,-1.29748 -0.54322,-0.59054 -0.56204,-0.69169 -0.18671,-1.00318 0.35256,-0.29261 0.47761,-0.26048 0.80485,0.20671 0.56049,0.80023 3.18651,1.72245 4.49453,1.57842 1.53537,-0.16906 2.99337,-0.9404 3.45126,-1.82585 0.41875,-0.80977 0.846,-4.1902 0.52961,-4.1902 -0.10234,0 -0.62557,0.35107 -1.16274,0.78015 -4.47729,3.57638 -10.13463,-1.05718 -8.49599,-6.95851 0.54644,-1.96795 3.16605,-3.88197 5.30105,-3.87322 0.99599,0.004 3.26023,1.17855 3.88298,2.01413 l 0.56748,0.76141 0.008,-1.25677 c 0.008,-1.1683 0.0558,-1.25677 0.68257,-1.25677 h 0.67419 l -0.0789,6.70081 -0.0789,6.70081 -0.7279,1.09917 c -1.47652,2.22963 -5.12279,3.08734 -7.73877,1.82037 z m 4.10104,-5.76043 c 2.18315,-0.50287 3.17568,-2.00307 3.17401,-4.79755 -0.002,-2.5043 -1.14676,-4.12327 -3.3063,-4.67383 -2.12196,-0.54098 -3.95498,0.38319 -4.92389,2.48252 -1.26412,2.73899 -0.0417,5.8895 2.71334,6.99295 0.80509,0.32246 0.92606,0.32225 2.34284,-0.004 z m -76.464582,0.92369 c -1.205701,-0.52225 -2.300888,-1.57662 -2.951184,-2.84119 -0.629412,-1.22396 -0.704397,-3.90994 -0.146433,-5.24534 1.039688,-2.48832 4.036094,-4.07917 6.482307,-3.44157 2.902588,0.75655 4.663263,3.02835 4.635484,5.98117 -0.02421,2.57306 -1.390949,4.63925 -3.712196,5.61198 -1.116883,0.46803 -3.148079,0.43736 -4.307978,-0.065 z m 3.778811,-1.0008 c 1.029621,-0.44054 2.171396,-1.6159 2.554356,-2.62949 0.391962,-1.03741 0.35128,-3.20601 -0.07948,-4.23696 -0.769472,-1.84162 -3.111971,-3.04859 -4.95403,-2.55257 -4.141501,1.11518 -4.799242,7.33032 -0.976037,9.22277 1.315464,0.65114 2.265887,0.70512 3.455194,0.19625 z m 27.185345,1.12825 c -3.272039,-1.30586 -4.758161,-5.41901 -3.110593,-8.60921 0.855419,-1.65635 1.666436,-2.32733 3.51889,-2.91126 3.569443,-1.12517 7.000451,1.31421 7.314231,5.20026 l 0.07477,0.92604 -5.093229,0.0719 c -5.72511,0.0808 -5.532342,-0.006 -4.591492,2.06561 1.283102,2.82511 4.814978,3.52046 6.993094,1.37679 0.693386,-0.68242 1.765586,-1.00453 1.765586,-0.53042 0,0.56601 -1.006515,1.50504 -2.217645,2.06897 -1.438175,0.66965 -3.459512,0.81793 -4.653616,0.34136 z m 6.502159,-7.17353 c -0.09387,-0.46933 -0.471263,-1.28708 -0.838658,-1.81724 -2.156457,-3.11177 -7.362293,-2.01032 -7.961892,1.68458 l -0.160001,0.98598 h 4.565608 4.565607 z m 62.376057,7.20555 c -1.27391,-0.51409 -1.41737,-1.12282 -1.41737,-6.01422 v -4.57134 h -0.79375 c -0.60827,0 -0.79375,-0.11954 -0.79375,-0.51159 0,-0.36142 0.21358,-0.53617 0.7276,-0.59532 0.70786,-0.0814 0.7312,-0.13756 0.8599,-2.06809 0.11759,-1.76389 0.19109,-1.98437 0.66146,-1.98437 0.47037,0 0.54386,0.22048 0.66145,1.98437 l 0.1323,1.98438 1.40569,0.0805 c 1.15485,0.0662 1.39047,0.16061 1.32043,0.52917 -0.0649,0.34179 -0.41963,0.46781 -1.48945,0.5292 l -1.4042,0.0806 0.0838,4.37305 c 0.0965,5.03926 0.17965,5.22041 2.32771,5.07244 0.91296,-0.0629 1.20444,0.0145 1.26749,0.33627 0.0561,0.28654 -0.24306,0.51528 -0.95173,0.7276 -1.19208,0.35716 -1.80222,0.36827 -2.59754,0.0473 z M 34.584825,168.18704 v -8.08737 l 0.720554,0.0837 c 0.609641,0.0708 0.955818,0.50117 2.248958,2.7957 0.840622,1.49159 2.213014,3.92303 3.049758,5.4032 0.836745,1.48018 1.640417,2.73027 1.785938,2.778 0.145521,0.0477 0.753733,-0.77638 1.351583,-1.83133 1.521583,-2.68495 4.158833,-7.307 4.759498,-8.34151 0.386422,-0.66552 0.657315,-0.85009 1.164961,-0.79375 l 0.661458,0.0734 0.07002,8.00365 0.07003,8.00364 h -0.66534 -0.665337 v -6.50434 c 0,-5.01769 -0.07414,-6.47963 -0.324353,-6.39622 -0.178395,0.0595 -1.577379,2.32623 -3.108854,5.03726 -1.650918,2.92247 -2.947089,4.93398 -3.183877,4.94102 -0.454164,0.0135 -0.593788,-0.18781 -2.652789,-3.82459 -0.82388,-1.45521 -2.021997,-3.5388 -2.662483,-4.63021 l -1.164519,-1.98438 -0.07069,6.68073 -0.07069,6.68073 H 35.24174 34.584825 Z m 36.19137,7.10855 c -0.226553,-0.55306 -1.188522,-2.92769 -2.137712,-5.27694 -0.94919,-2.34927 -1.860008,-4.52216 -2.024039,-4.82865 -0.271827,-0.50792 -0.229327,-0.55726 0.479949,-0.55726 0.691954,0 0.82558,0.13927 1.205844,1.25677 1.068562,3.14023 3.479094,9.04517 3.668588,8.98673 0.115525,-0.0356 0.681466,-1.25367 1.257649,-2.70675 3.128955,-7.89093 2.960603,-7.53675 3.582469,-7.53675 0.58111,0 0.577136,0.0266 -0.345617,2.3151 -0.513421,1.27331 -1.210662,3.02948 -1.549421,3.9026 -1.935628,4.98891 -2.09854,5.28702 -2.935317,5.37119 -0.695401,0.07 -0.840031,-0.0414 -1.202393,-0.92604 z m 9.316963,-4.84202 c 0,-5.64444 0.01603,-5.82083 0.529167,-5.82083 0.51313,0 0.529166,0.17639 0.529166,5.82083 0,5.64444 -0.01603,5.82083 -0.529166,5.82083 -0.513131,0 -0.529167,-0.17639 -0.529167,-5.82083 z m 24.606252,-2.24896 c 0,-10.21795 -0.33699,-9.9503 4.63815,-3.68384 1.74188,2.19399 4.06003,5.13228 5.15143,6.52953 1.09141,1.39725 2.07163,2.54896 2.17827,2.55937 0.10664,0.0104 0.2257,-2.98743 0.26458,-6.66183 l 0.0707,-6.68073 0.59532,-0.0846 0.59531,-0.0845 v 8.10576 8.10577 l -0.62923,-0.0837 c -0.61476,-0.0818 -1.65246,-1.29457 -8.89577,-10.39657 l -2.24896,-2.82606 -0.0707,6.6356 -0.0707,6.6356 h -0.7892 -0.78921 z m 17.72708,2.24896 v -5.82083 h 0.66146 0.66146 v 5.82083 5.82083 h -0.66146 -0.66146 z m 19.37696,-2.4474 0.0699,-8.26823 0.59531,-0.0845 c 0.59316,-0.0842 0.59531,-0.0711 0.59531,3.63802 0,2.04741 0.0989,3.72257 0.21988,3.72257 0.12093,0 0.37996,-0.29913 0.57562,-0.66473 0.19566,-0.3656 0.9922,-0.97612 1.77009,-1.3567 2.62652,-1.28504 4.97065,-0.38099 5.61153,2.16417 0.15925,0.63245 0.28955,2.94266 0.28955,5.13379 v 3.98388 h -0.66146 -0.66146 v -4.08381 c 0,-2.2461 -0.11177,-4.37779 -0.24837,-4.7371 -0.96401,-2.53552 -4.4861,-2.34888 -6.29377,0.33352 -0.55634,0.82556 -0.60161,1.17845 -0.60161,4.69006 v 3.79733 h -0.66523 -0.66522 z m -61.710292,-7.34218 c 0,-0.88195 0.08819,-1.05834 0.529167,-1.05834 0.440973,0 0.529166,0.17639 0.529166,1.05834 0,0.88194 -0.08819,1.05833 -0.529166,1.05833 -0.440973,0 -0.529167,-0.17639 -0.529167,-1.05833 z m 42.383502,0.0661 c 0.0653,-0.78842 0.1908,-0.99219 0.61129,-0.99219 0.42049,0 0.54603,0.20377 0.61129,0.99219 0.0757,0.91502 0.0282,0.99219 -0.61129,0.99219 -0.63947,0 -0.68701,-0.0772 -0.61129,-0.99219 z M 69.196529,143.53111 c -0.601226,-0.70611 -0.949251,-1.77402 -1.659485,-5.09212 -0.617085,-2.88292 -1.187551,-5.40664 -3.020256,-13.36146 -0.435846,-1.89177 -1.155494,-5.0176 -1.599221,-6.9463 -0.443728,-1.92869 -1.171565,-5.08385 -1.617414,-7.01146 -0.445849,-1.92761 -1.030645,-4.50195 -1.299543,-5.72076 -0.46028,-2.08628 -0.787808,-2.66514 -1.51338,-2.67472 -0.168833,-0.002 -0.921943,-0.49016 -1.673574,-1.08429 -2.990242,-2.363649 -4.406067,-6.059396 -3.729017,-9.733887 0.402866,-2.186422 1.087277,-3.498255 2.732921,-5.238285 l 1.33055,-1.406858 -0.301434,-1.500952 c -0.380423,-1.894271 -0.387856,-5.217015 -0.01556,-6.953004 0.959514,-4.474059 4.639321,-8.627235 9.223243,-10.409719 1.668777,-0.648915 2.435535,-0.787157 4.626959,-0.834213 2.464988,-0.05293 2.651234,-0.09591 3.025034,-0.698063 1.353077,-2.179648 3.995722,-3.989253 6.502369,-4.452631 3.933266,-0.727105 7.774643,0.915895 10.208392,4.366239 0.30557,0.433207 0.769694,0.58761 2.111454,0.702426 3.816136,0.326546 8.044763,3.090775 10.089323,6.59533 0.64843,1.111456 0.78884,1.204979 2.0299,1.351962 3.54765,0.420167 7.64346,4.082945 8.55864,7.653767 0.27092,1.057092 0.51022,1.384329 1.39998,1.914493 1.1332,0.675217 1.84757,1.306557 3.26243,2.883236 0.73941,0.823976 1.0301,0.964803 1.98437,0.961345 1.45922,-0.0053 1.66361,-0.163732 2.0426,-1.583449 0.17481,-0.654844 0.40441,-1.309688 0.51022,-1.455209 0.10582,-0.14552 0.33636,-0.800364 0.51232,-1.455208 0.46105,-1.715831 2.10271,-6.956121 2.87739,-9.184799 0.96626,-2.779868 2.09172,-3.386603 3.55943,-1.918893 0.5778,0.577808 0.76157,0.966803 0.6562,1.389062 -0.34665,1.389219 -1.64978,5.636345 -1.80357,5.878172 -0.0925,0.145521 -0.43599,1.276614 -0.76321,2.513541 -0.32722,1.236927 -0.67872,2.368021 -0.7811,2.513542 -0.35251,0.501057 -0.85419,2.736808 -0.67805,3.021806 0.1116,0.180565 1.45912,0.286975 3.66656,0.289536 1.91956,0.0021 3.63432,0.0957 3.81058,0.207712 0.69353,0.440745 2.44052,6.056492 2.45235,7.883167 0.005,0.80644 -0.65898,1.694654 -1.26726,1.694654 -0.46961,0 -0.51932,0.542822 -0.96924,10.58333 -0.2315,5.16599 -0.53371,10.40474 -0.6716,11.64167 -0.13788,1.23693 -0.43142,6.05896 -0.65231,10.71562 -0.60595,12.77441 -0.64741,13.23999 -1.23511,13.87082 -0.50626,0.5434 -0.56389,0.54441 -31.01839,0.54558 -28.704673,0.001 -30.534481,-0.0262 -30.904498,-0.46073 z m 58.632131,-3.83535 c 0.0663,-0.32742 0.25123,-3.69094 0.4109,-7.47448 0.15968,-3.78354 0.40661,-7.95073 0.54874,-9.26042 0.27394,-2.52433 1.31288,-21.96251 1.31177,-24.542619 l -6.6e-4,-1.523873 -12.89844,0.06866 -12.89844,0.06866 0.0225,1.984375 c 0.0351,3.089877 1.37886,26.821707 1.6779,29.633327 0.14703,1.38245 0.34575,4.47808 0.4416,6.87917 0.0958,2.40109 0.22566,4.45492 0.28849,4.56406 0.0628,0.10914 4.8079,0.19844 10.54461,0.19844 h 10.43039 l 0.12058,-0.59531 z m -51.980342,-0.39688 c -0.0063,-0.40018 -0.243263,-2.8112 -0.526524,-5.35781 -0.28326,-2.54661 -0.811657,-7.60677 -1.174212,-11.24479 -0.362559,-3.63802 -0.776185,-7.26943 -0.919171,-8.06979 -0.142986,-0.80037 -0.455948,-3.59834 -0.69547,-6.21771 -0.257101,-2.81164 -0.559049,-4.84213 -0.737119,-4.95689 -0.165891,-0.10691 -2.001999,-0.19621 -4.080237,-0.19844 -3.09462,-0.003 -3.805817,0.0668 -3.928883,0.38753 -0.08264,0.21537 0.108278,1.4953 0.424275,2.84427 0.315995,1.34899 0.915765,3.94098 1.332823,5.75999 0.812556,3.54399 1.848898,8.02154 3.184403,13.75833 0.457338,1.96453 1.174155,5.06016 1.592929,6.87917 0.418772,1.81901 0.963589,4.17049 1.210705,5.22552 l 0.449297,1.91823 h 1.939345 1.939346 l -0.01151,-0.72761 z m 8.21359,-17.66093 V 103.2494 h -3.844761 c -3.04011,0 -3.874328,0.077 -3.986033,0.36814 -0.0777,0.20248 0.167098,3.32787 0.543986,6.94531 0.376891,3.61745 0.975019,9.49421 1.329177,13.05947 0.354156,3.56526 0.760534,7.0776 0.903065,7.80521 0.142531,0.7276 0.403495,2.96002 0.579922,4.96094 l 0.320776,3.63802 h 2.076934 2.076934 z m 8.490738,18.32239 c 0.01323,-0.0364 0.305621,-2.68552 0.649732,-5.88698 0.344115,-3.20146 0.984716,-9.09505 1.423557,-13.09687 0.438843,-4.00183 1.04418,-9.52827 1.345194,-12.28099 0.442884,-4.05009 0.482188,-5.04626 0.206018,-5.22147 -0.560948,-0.35589 -7.462094,-0.27402 -7.828989,0.0929 -0.240686,0.24069 -0.3175,4.64687 -0.3175,18.21216 0,9.84206 0.07937,17.97402 0.17639,18.07104 0.160332,0.16033 4.28925,0.26508 4.345598,0.11024 z m 8.291344,-0.92604 c 0.0947,-0.5457 0.47398,-2.19977 0.84279,-3.6757 0.6547,-2.62006 0.66356,-2.77958 0.37462,-6.74687 -0.16277,-2.23485 -0.50753,-8.05874 -0.76615,-12.94196 -0.25861,-4.88323 -0.58035,-9.05042 -0.71496,-9.26042 -0.16671,-0.26009 -0.34319,0.50392 -0.55351,2.3963 -1.860612,16.74123 -3.237062,29.64781 -3.252008,30.49323 l -0.01286,0.72761 h 1.95493 1.954928 z m -0.81548,-39.687802 c 0.0675,-0.109308 0.0617,-0.741485 -0.0131,-1.40484 -0.101083,-0.896837 -0.280018,-1.2699 -0.697825,-1.454907 -0.849854,-0.376322 -1.229042,-1.339352 -0.917014,-2.328968 0.143979,-0.456639 0.56537,-2.02088 0.936427,-3.476088 1.022392,-4.009612 0.702512,-3.835659 7.062202,-3.840509 2.92143,-0.0021 5.47622,-0.108257 5.67732,-0.23562 0.36937,-0.233944 0.22657,-0.360185 -1.39028,-1.229039 -0.50999,-0.274058 -0.83649,-1.01186 -1.5907,-3.594587 -0.33231,-1.137978 -0.72051,-1.754108 -1.63805,-2.599865 -1.51715,-1.398468 -2.62153,-1.858999 -4.92008,-2.051701 -2.0166,-0.169066 -2.25401,-0.363061 -3.251355,-2.656797 -0.610478,-1.404001 -2.53578,-3.231383 -4.407217,-4.183065 -1.119066,-0.56908 -1.939846,-0.758079 -3.830987,-0.882158 -2.711741,-0.177917 -3.031943,-0.350584 -3.941898,-2.125666 -0.670935,-1.308817 -1.227023,-1.864195 -2.553271,-2.550025 -1.104051,-0.570928 -3.813702,-0.587732 -4.891588,-0.03034 -1.144521,0.591855 -2.624812,2.325048 -3.007524,3.521348 -0.180663,0.564724 -0.439412,1.145833 -0.575,1.291354 -0.142746,0.153205 -1.883492,0.264584 -4.135226,0.264584 -3.771418,0 -3.935754,0.02344 -5.448684,0.776867 -2.014378,1.003157 -4.056925,3.0407 -5.056351,5.043966 -0.74167,1.486617 -0.792001,1.78086 -0.792001,4.630208 0,2.643421 0.07812,3.191341 0.595312,4.175334 0.327422,0.622946 0.595313,1.409232 0.595313,1.747303 0,0.635802 -1.081956,2.014863 -1.580777,2.014863 -0.155721,0 -0.813433,0.488815 -1.461577,1.086255 -0.918448,0.846595 -1.304155,1.476558 -1.7482,2.855275 l -0.569751,1.76902 0.589047,1.615511 c 0.566812,1.554536 1.434285,2.621757 2.919174,3.591351 0.596268,0.389348 2.596121,0.433285 20.291156,0.445794 10.796333,0.0076 19.68497,-0.07555 19.752525,-0.184861 z M 82.140017,92.599924 c -0.239543,-0.181901 -0.544833,-0.628385 -0.678421,-0.992187 -0.268396,-0.730925 -0.01479,-3.114596 0.49842,-4.684504 0.428725,-1.311497 2.083466,-3.743444 3.235132,-4.754618 1.508143,-1.324168 4.249031,-2.514097 6.140754,-2.665947 2.285457,-0.183454 2.929916,0.01789 3.28101,1.025038 0.561179,1.609794 -0.647258,2.866348 -2.763993,2.874047 -1.432113,0.0052 -3.603006,1.118841 -4.716166,2.419319 -0.983187,1.14863 -2.016512,3.6689 -2.016512,4.918252 0,1.672434 -1.771544,2.778434 -2.980224,1.8606 z M 69.396829,86.165276 c -0.593042,-0.593042 -0.767268,-1.520799 -0.55613,-2.961449 0.280368,-1.913036 1.030584,-3.35983 2.50861,-4.837856 1.579808,-1.579809 3.219132,-2.374707 5.274259,-2.557455 1.887765,-0.167865 2.940423,0.51068 2.940423,1.895404 0,1.103558 -0.336253,1.374917 -2.454259,1.980612 -2.848202,0.814515 -3.77068,1.731965 -4.406593,4.38258 -0.46655,1.944679 -0.9169,2.513541 -1.989889,2.513541 -0.495575,0 -1.087964,-0.18692 -1.316421,-0.415377 z m 61.763381,5.715661 c -0.12384,-0.431823 -0.30115,-0.908073 -0.39402,-1.058333 -0.19763,-0.319778 -27.02309,-0.393483 -27.21068,-0.07476 -0.0642,0.10914 -0.19978,0.58539 -0.30122,1.058333 l -0.18443,0.859896 h 14.15776 14.15777 z"
         id="path3828"
         inkscape:connector-curvature="0" />
      <path
         style="fill:#2e3050;stroke-width:0.26458332"
         d="m 130.06148,181.15099 c -1.75007,-0.53878 -3.71657,-2.49534 -2.50801,-2.49534 0.20046,0 0.50418,0.16833 0.67493,0.37407 0.17075,0.20574 0.83887,0.62246 1.48472,0.92604 2.35388,1.10646 5.43678,0.4454 6.37387,-1.36674 0.53372,-1.0321 0.84368,-4.43128 0.40407,-4.43128 -0.16172,0 -0.48245,0.28756 -0.71274,0.63902 -0.54261,0.82812 -2.19039,1.47764 -3.74865,1.47764 -1.81997,0 -3.21917,-0.79168 -4.31151,-2.4395 -0.85398,-1.28825 -0.92604,-1.55299 -0.92604,-3.40208 0,-1.76499 0.0954,-2.16107 0.79682,-3.30729 1.01002,-1.65057 2.55205,-2.49279 4.56404,-2.49279 1.5998,0 2.5002,0.38779 3.60931,1.55447 0.42245,0.44438 0.86894,0.74564 0.99219,0.66946 0.12325,-0.0762 0.22409,-0.60772 0.22409,-1.18122 0,-0.86632 0.0895,-1.04271 0.52917,-1.04271 0.51435,0 0.52917,0.17639 0.52917,6.29805 0,6.21902 -0.008,6.31502 -0.67409,7.65076 -0.7504,1.50586 -1.24095,1.90298 -3.14336,2.5447 -1.55723,0.52527 -2.51366,0.53096 -4.15798,0.0247 z m 4.96778,-6.48576 c 1.19814,-0.74049 1.68473,-1.95945 1.68473,-4.22042 0,-2.23389 -0.52003,-3.31956 -2.04,-4.25895 -1.11664,-0.69012 -2.96054,-0.80575 -4.2399,-0.26589 -1.33384,0.56286 -2.53401,2.7082 -2.53709,4.53515 -0.003,2.06167 1.34365,4.06439 3.26074,4.84765 0.68754,0.2809 3.00219,-0.10026 3.87152,-0.63754 z m -78.122339,1.23622 c -2.042289,-0.95092 -3.100996,-2.61521 -3.228469,-5.07516 -0.07802,-1.50569 0.01056,-2.08751 0.448521,-2.94599 0.736741,-1.44413 1.950488,-2.6103 3.117755,-2.99553 1.528556,-0.50447 4.147471,-0.18424 5.358863,0.65525 2.332403,1.61636 3.137951,5.07974 1.79669,7.72471 -0.78509,1.54821 -1.272479,2.01701 -2.832714,2.72473 -1.567164,0.71086 -3.003176,0.68374 -4.660646,-0.088 z m 4.62419,-1.1484 c 1.253643,-0.81222 2.422464,-2.88669 2.422464,-4.29948 0,-1.29459 -1.179288,-3.48378 -2.275346,-4.22389 -1.297064,-0.87582 -3.297888,-0.89831 -4.666533,-0.0524 -1.417634,0.87615 -2.440977,3.07114 -2.236546,4.79722 0.43121,3.64091 3.939712,5.60321 6.755961,3.7786 z m 26.367255,1.2658 c -1.948921,-0.93643 -2.864053,-2.06064 -3.43296,-4.21725 -0.608394,-2.30632 0.482121,-5.20548 2.40507,-6.39393 1.4776,-0.9132 4.357939,-1.01025 5.898409,-0.19874 1.583272,0.83406 2.710006,2.47023 2.873608,4.17287 l 0.128408,1.33635 h -5.060747 -5.060746 v 0.64424 c 0,2.10753 2.312125,4.38285 4.453742,4.38285 1.041873,0 3.01004,-0.90578 3.419853,-1.57386 0.318492,-0.5192 1.386822,-0.77352 1.386822,-0.33013 0,0.52862 -1.894438,1.96852 -3.045841,2.31504 -1.692302,0.50931 -2.69167,0.47467 -3.965618,-0.13744 z m 6.666693,-7.01521 c -0.211939,-1.30603 -1.374465,-2.69987 -2.764718,-3.31485 -1.543616,-0.68281 -1.921526,-0.6657 -3.681103,0.16671 -1.184034,0.56014 -1.561595,0.90379 -1.962179,1.78594 -0.272817,0.60079 -0.498645,1.36023 -0.501841,1.68765 -0.0058,0.59442 0.0011,0.59531 4.526725,0.59531 h 4.532535 z M 34.584825,168.3369 v -7.9375 h 0.77319 c 0.708358,0 0.896805,0.2274 2.24742,2.71198 0.810826,1.49159 1.893499,3.42636 2.40594,4.29948 0.512441,0.87313 1.191702,2.09352 1.509469,2.71198 0.317767,0.61846 0.703987,1.12448 0.858267,1.12448 0.345373,0 0.611091,-0.41506 3.048926,-4.7625 2.982296,-5.31839 3.5043,-6.08542 4.141457,-6.08542 h 0.625747 v 7.9375 c 0,7.76111 -0.01175,7.9375 -0.529166,7.9375 -0.515057,0 -0.529167,-0.17639 -0.529167,-6.61458 0,-4.15777 -0.09662,-6.61458 -0.260125,-6.61458 -0.143071,0 -0.565968,0.56554 -0.939771,1.25677 -0.692184,1.27996 -2.537076,4.52957 -4.132889,7.27972 -1.394446,2.40311 -1.482292,2.32695 -5.268416,-4.56774 -1.713149,-3.11972 -2.334933,-4.01757 -2.648198,-3.82396 -0.138628,0.0857 -0.244351,2.94893 -0.244351,6.6177 0,6.29028 -0.01443,6.46667 -0.529167,6.46667 -0.517407,0 -0.529166,-0.17639 -0.529166,-7.9375 z m 36.05218,6.56204 c -0.299815,-0.77146 -0.901914,-2.29563 -1.337998,-3.38704 -0.436083,-1.0914 -1.119656,-2.81781 -1.519052,-3.83646 -0.399394,-1.01864 -0.828408,-1.96519 -0.95336,-2.10343 -0.399161,-0.44163 -0.244099,-0.93927 0.292672,-0.93927 0.585261,0 0.862414,0.4267 1.483241,2.28357 0.236902,0.70857 0.592632,1.64549 0.790508,2.08205 0.19788,0.43656 0.649005,1.56766 1.002499,2.51354 1.503227,4.02236 1.673106,4.18021 2.348994,2.18282 0.233903,-0.69123 0.805548,-2.20928 1.270328,-3.37344 0.464781,-1.16417 1.145427,-2.92034 1.512547,-3.90261 0.496604,-1.32871 0.79394,-1.78593 1.161423,-1.78593 0.630187,0 0.622681,0.10871 -0.138116,2.00035 -4.034962,10.03247 -3.78103,9.50337 -4.601958,9.58877 -0.703707,0.0732 -0.81134,-0.0353 -1.311728,-1.32292 z m 9.456153,-4.44537 c 0,-5.64444 0.01603,-5.82083 0.529167,-5.82083 0.51313,0 0.529166,0.17639 0.529166,5.82083 0,5.64444 -0.01603,5.82083 -0.529166,5.82083 -0.513131,0 -0.529167,-0.17639 -0.529167,-5.82083 z m 24.606252,-2.11667 v -7.9375 h 0.63505 c 0.51291,0 1.6372,1.25956 5.8452,6.54844 2.86557,3.60164 5.31824,6.58813 5.45036,6.63663 0.13986,0.0513 0.24022,-2.68431 0.24022,-6.54844 v -6.63663 h 0.66146 0.66146 v 7.9375 7.9375 l -0.59531,-0.0146 c -0.43761,-0.0108 -1.26117,-0.85902 -3.10886,-3.20213 -1.38245,-1.75311 -3.7637,-4.74632 -5.29167,-6.65156 l -2.77812,-3.46408 -0.0707,6.66621 -0.0707,6.6662 h -0.7892 -0.78921 v -7.9375 z m 17.72708,2.11667 v -5.82083 h 0.66146 0.66146 v 5.82083 5.82083 h -0.66146 -0.66146 z m 19.31458,-2.38125 v -8.20208 h 0.66146 0.66146 v 3.57187 c 0,1.96453 0.0967,3.57188 0.21483,3.57188 0.11815,0 0.46538,-0.3389 0.77161,-0.7531 0.77173,-1.04381 2.14391,-1.62815 3.82332,-1.62815 1.61965,0 2.38077,0.41584 3.05606,1.6697 0.36585,0.67929 0.47385,1.73386 0.55384,5.4079 l 0.0994,4.56406 h -0.68764 -0.68764 v -4.24647 c 0,-5.53487 -0.36945,-6.33686 -2.91918,-6.33686 -1.48168,0 -2.79767,0.66881 -3.57927,1.81902 -0.61201,0.90066 -0.6453,1.15122 -0.6453,4.85698 v 3.90733 h -0.66146 -0.66146 z m 14.87725,8.025 c -0.88952,-0.3579 -1.11891,-1.59001 -1.11891,-6.00991 v -4.36119 l -0.72534,-0.0837 c -0.43748,-0.0505 -0.76019,-0.26748 -0.81315,-0.54674 -0.0682,-0.35958 0.0939,-0.46302 0.72534,-0.46302 h 0.81315 v -1.98438 c 0,-1.93084 0.0175,-1.98437 0.64986,-1.98437 0.6232,0 0.65306,0.0787 0.72761,1.91823 l 0.0777,1.91823 1.25677,0.0806 c 1.04094,0.0668 1.25677,0.16903 1.25677,0.59531 0,0.44122 -0.18881,0.51467 -1.32292,0.51467 h -1.32292 v 4.17446 c 0,5.11056 0.1494,5.47978 2.13989,5.28852 1.46988,-0.14124 2.04374,0.422 0.88055,0.86424 -0.70083,0.26645 -2.64046,0.31399 -3.22444,0.079 z M 80.093158,160.79628 c 0,-0.74965 0.100793,-0.92604 0.529167,-0.92604 0.428373,0 0.529166,0.17639 0.529166,0.92604 0,0.74965 -0.100793,0.92604 -0.529166,0.92604 -0.428374,0 -0.529167,-0.17639 -0.529167,-0.92604 z m 42.333332,0 c 0,-0.81139 0.0819,-0.92604 0.66146,-0.92604 0.57956,0 0.66146,0.11465 0.66146,0.92604 0,0.81139 -0.0819,0.92604 -0.66146,0.92604 -0.57956,0 -0.66146,-0.11465 -0.66146,-0.92604 z M 69.203789,143.53179 c -0.481722,-0.5754 -1.110086,-2.68421 -1.675191,-5.62197 -0.237934,-1.23693 -0.596537,-2.78474 -0.796898,-3.43958 -0.200361,-0.65485 -0.557676,-2.20266 -0.794033,-3.43959 -0.236358,-1.23692 -0.560951,-2.66567 -0.721321,-3.175 -0.160366,-0.50932 -0.62498,-2.44495 -1.032475,-4.3014 -0.407498,-1.85645 -1.09809,-4.92317 -1.534652,-6.81494 -0.436563,-1.89177 -1.14362,-4.95677 -1.571237,-6.8111 -0.427616,-1.85433 -0.909005,-3.9073 -1.069752,-4.56214 -0.160748,-0.65484 -0.346922,-1.43387 -0.413719,-1.73118 -0.07078,-0.31505 -0.559273,-0.73372 -1.170969,-1.0036 -1.371026,-0.6049 -3.709215,-2.931846 -4.442873,-4.421522 -0.816226,-1.657326 -1.189079,-4.275439 -0.879644,-6.176687 0.344324,-2.115608 1.177359,-3.731093 2.812098,-5.45343 l 1.382149,-1.456214 -0.392208,-1.454203 c -0.277765,-1.029885 -0.356026,-2.264831 -0.268216,-4.232331 0.104428,-2.339811 0.253333,-3.085309 0.943784,-4.725119 1.840093,-4.370195 5.198491,-7.335052 9.79854,-8.650338 2.074548,-0.593175 2.80149,-0.685877 4.292084,-0.547341 l 1.794531,0.166785 0.427784,-0.827246 c 1.052782,-2.035852 4.128301,-4.110069 6.589352,-4.444042 3.650099,-0.495328 7.120099,0.84877 9.223862,3.572846 1.015206,1.31455 1.190707,1.429605 2.182135,1.430531 1.49419,0.0013 4.720474,1.148024 6.462488,2.296776 1.554493,1.025099 2.819912,2.350254 4.102832,4.296532 0.69519,1.054663 0.94547,1.229299 1.98437,1.384628 3.78766,0.566303 7.84474,4.14261 8.74203,7.706071 0.25141,0.998437 0.50995,1.328352 1.58886,2.02746 0.70873,0.45924 1.87333,1.491036 2.588,2.292882 l 1.29941,1.457902 1.41541,-0.08114 1.4154,-0.08114 0.71761,-2.116667 c 0.39468,-1.164166 1.21768,-3.72401 1.8289,-5.688541 2.27576,-7.314663 2.46098,-7.780393 3.19707,-8.039264 0.9712,-0.341551 2.04504,0.0081 2.39697,0.780528 0.24455,0.536729 0.18431,1.131835 -0.31394,3.101555 -0.33911,1.340564 -0.7362,2.672937 -0.88243,2.960827 -0.14622,0.287894 -0.53835,1.478519 -0.87138,2.645834 -0.33304,1.167318 -0.78843,2.623963 -1.01198,3.236992 -0.22356,0.613029 -0.48333,1.595294 -0.57728,2.182812 l -0.17082,1.068216 h 3.69698 c 4.20529,0 4.17546,-0.01355 4.95607,2.248958 0.66203,1.918787 1.462,5.181883 1.46563,5.978263 0.003,0.684181 -0.54478,1.348944 -1.34321,1.629738 -0.35918,0.126315 -0.46702,1.199862 -0.74162,7.382399 -0.17673,3.97903 -0.43553,8.3442 -0.57511,9.70038 -0.13958,1.35618 -0.54525,8.24264 -0.90148,15.30323 -0.5508,10.91675 -0.71856,12.98237 -1.12127,13.80609 l -0.47356,0.96864 -30.5849,0.0657 c -28.840264,0.062 -30.60699,0.0393 -30.972181,-0.39688 z m 58.953581,-9.55463 c 0.16881,-3.39988 0.37533,-6.55504 0.45893,-7.01145 0.15726,-0.85848 1.56018,-25.90032 1.59548,-28.478807 l 0.0199,-1.455208 -13.03073,-0.06864 -13.03073,-0.06864 0.0129,2.185307 c 0.007,1.201918 0.12093,3.375928 0.25303,4.831138 0.13211,1.45521 0.54207,8.27424 0.91103,15.1534 0.36897,6.87916 0.78991,13.54666 0.93542,14.81667 0.14552,1.27 0.26556,3.15246 0.26675,4.18323 10e-4,1.03077 0.0829,1.95485 0.18156,2.05352 0.0987,0.0987 4.89093,0.14827 10.64948,0.11024 l 10.47008,-0.0691 z m -52.297736,5.45401 c -2.64e-4,-1.12136 -1.06359,-11.70633 -1.322192,-13.16302 -0.142086,-0.80036 -0.507454,-4.19056 -0.811932,-7.53378 -0.304474,-3.34321 -0.606721,-6.16454 -0.671655,-6.2696 -0.06494,-0.10507 -0.295513,-2.07268 -0.512395,-4.37247 -0.216884,-2.29979 -0.448207,-4.33027 -0.514053,-4.51217 -0.08878,-0.24525 -1.181836,-0.33073 -4.229071,-0.33073 -3.853172,0 -4.109345,0.0312 -4.109345,0.50004 0,0.61846 1.00479,5.54928 1.192813,5.8535 0.07527,0.1218 0.431475,1.66802 0.791562,3.43605 0.360088,1.76803 0.717275,3.31584 0.79375,3.43958 0.07648,0.12374 0.433663,1.67155 0.79375,3.43958 0.360088,1.76803 0.717275,3.31585 0.79375,3.43959 0.07648,0.12374 0.433663,1.67155 0.79375,3.43958 0.360088,1.76803 0.717622,3.3164 0.79452,3.44083 0.0769,0.12443 0.423228,1.57403 0.769612,3.22135 0.346388,1.64731 0.83788,3.79878 1.092206,4.78105 l 0.462407,1.78594 h 1.946357 c 1.842111,0 1.946346,-0.0319 1.946166,-0.59532 z m 8.466857,-17.37471 c 0,-9.88352 -0.07227,-18.15836 -0.160599,-18.38854 -0.241321,-0.62887 -7.904956,-0.62677 -8.146328,0.002 -0.0888,0.23141 -0.09816,0.52316 -0.0208,0.64833 0.07736,0.12518 0.434914,3.35889 0.794562,7.18602 0.359648,3.82714 0.712595,7.11475 0.784323,7.3058 0.07173,0.19105 0.426297,3.4855 0.787924,7.32099 0.36163,3.8355 0.767739,7.48918 0.902467,8.1193 0.134726,0.63013 0.32665,2.18748 0.426495,3.46078 l 0.181542,2.31511 h 2.225206 2.225207 v -17.97003 z m 8.703173,13.93513 c 0.182041,-2.21919 0.494974,-5.04693 0.695407,-6.28385 0.20043,-1.23693 0.549613,-4.45162 0.775964,-7.14375 0.226349,-2.69214 0.529604,-5.49011 0.673902,-6.21771 0.460224,-2.32066 1.352108,-12.64382 1.113033,-12.8829 -0.125756,-0.12575 -2.005332,-0.19558 -4.176834,-0.15517 l -3.948186,0.0735 -0.06796,18.32239 -0.06795,18.3224 h 2.335821 2.335824 z m 7.963916,2.51354 c 0.16524,-0.83674 0.5011,-2.11666 0.74636,-2.84427 0.55037,-1.63275 0.52325,-7.40836 -0.0677,-14.41979 -0.21463,-2.54661 -0.47114,-6.77333 -0.57,-9.39271 -0.0989,-2.61937 -0.30542,-5.06015 -0.45901,-5.42396 l -0.27924,-0.66145 -0.0827,0.79374 c -0.0455,0.43657 -0.25848,2.04391 -0.473293,3.57188 -0.214816,1.52797 -0.577133,4.92125 -0.805149,7.54063 -0.228018,2.61937 -0.527568,5.35781 -0.66567,6.08541 -0.138099,0.72761 -0.549955,4.35901 -0.915231,8.06979 -0.365278,3.71078 -0.736624,7.0743 -0.825214,7.47448 l -0.161076,0.72761 h 2.128753 2.12875 z M 100.156,98.653371 c 0.13396,-1.172144 -0.14485,-1.899785 -0.851258,-2.221645 -0.354669,-0.1616 -0.721609,-0.535649 -0.81542,-0.831223 -0.144589,-0.455557 0.989727,-5.633905 1.599078,-7.300058 0.52994,-1.449025 0.55814,-1.455208 6.63639,-1.455208 3.10614,0 5.64571,-0.0893 5.64348,-0.198438 -0.008,-0.392507 -0.40313,-0.791789 -0.95324,-0.963282 -0.8833,-0.275362 -1.30952,-0.943271 -1.93143,-3.026608 -1.00251,-3.358314 -3.18796,-5.160222 -6.67778,-5.505852 -1.95181,-0.193305 -2.4113,-0.520523 -3.282625,-2.337657 -0.845712,-1.763721 -2.297044,-3.274132 -4.182769,-4.353034 -1.359657,-0.777915 -1.829467,-0.897551 -3.96312,-1.009187 -1.331333,-0.06966 -2.659165,-0.275672 -2.950736,-0.457811 -0.291571,-0.182139 -0.801492,-0.874512 -1.133158,-1.538608 -0.84066,-1.683258 -2.114415,-2.721329 -3.776577,-3.0778 -3.185033,-0.683067 -6.176563,0.978419 -6.894378,3.829116 -0.199012,0.790353 -0.47222,1.222016 -0.858036,1.355675 -0.31133,0.107855 -2.23293,0.200996 -4.270221,0.206981 -3.549716,0.01042 -3.762735,0.04212 -5.108774,0.760214 -2.671844,1.425387 -4.77748,3.834717 -5.514054,6.309342 -0.60457,2.031137 -0.390316,6.288563 0.393216,7.813595 0.314775,0.612667 0.57232,1.28814 0.57232,1.501056 0,0.517432 -1.278811,2.015214 -1.720596,2.015214 -0.630256,0 -2.239047,1.816492 -2.912218,3.288194 -0.820987,1.794862 -0.826556,2.822829 -0.02463,4.545074 0.664091,1.426218 1.368779,2.229347 2.673067,3.046481 0.760883,0.476692 1.60995,0.494546 20.505208,0.431162 l 19.711451,-0.06612 0.0868,-0.759574 z M 81.952581,92.277008 c -0.565301,-0.601734 -0.601948,-0.813901 -0.461452,-2.671572 0.193479,-2.558227 1.085895,-4.457136 3.082684,-6.559426 2.034106,-2.141579 4.514104,-3.382311 7.101277,-3.552737 2.26568,-0.149246 2.970151,0.248063 2.970151,1.675117 0,1.418994 -0.668745,1.947087 -2.798355,2.2098 -2.285195,0.281905 -3.123787,0.69474 -4.546544,2.238248 -1.307624,1.418605 -1.88033,2.666052 -2.186205,4.761912 -0.124317,0.851805 -0.430376,1.774539 -0.680135,2.050521 -0.634135,0.700707 -1.7443,0.632767 -2.481421,-0.151863 z M 69.264445,85.883513 c -0.649547,-0.825764 -0.683316,-1.584005 -0.160025,-3.59306 0.945525,-3.630112 4.620852,-6.557716 8.232592,-6.557716 1.130456,0 2.226979,0.898678 2.226979,1.825167 0,0.889579 -0.981905,1.878026 -1.869135,1.881584 -0.82645,0.0033 -3.156022,1.094111 -3.738711,1.750611 -0.648708,0.730874 -1.523325,2.764956 -1.530093,3.558497 -0.0032,0.374814 -0.281374,0.940361 -0.618176,1.256771 -0.839798,0.788948 -1.865653,0.739802 -2.543431,-0.121854 z m 62.000055,6.823872 c 0.0759,-0.122796 0.0175,-0.659646 -0.12977,-1.192999 l -0.26776,-0.969732 -13.6525,0.06852 -13.65251,0.06852 -0.33569,0.969719 c -0.18463,0.533347 -0.26604,1.039363 -0.18093,1.124479 0.24654,0.246539 28.06619,0.179001 28.21916,-0.06851 z"
         id="path3826"
         inkscape:connector-curvature="0" />
      <path
         style="fill:#08243c;stroke-width:0.26458332"
         d="m 129.61126,180.98002 c -1.15918,-0.39118 -2.5558,-1.7675 -2.17747,-2.14583 0.19343,-0.19343 0.45857,-0.11164 0.87618,0.27027 1.79674,1.64316 4.61103,1.96706 6.5355,0.75219 0.66377,-0.41902 1.26768,-1.06891 1.49187,-1.60546 0.40217,-0.96253 0.52316,-4.09345 0.15819,-4.09345 -0.12016,0 -0.50711,0.313 -0.8599,0.69555 -1.28793,1.39662 -3.55221,1.81499 -5.47496,1.01161 -1.32702,-0.55446 -2.10458,-1.32783 -2.89346,-2.87787 -1.86249,-3.65954 0.79866,-8.35429 4.7355,-8.35429 1.51985,0 2.77226,0.52037 3.76859,1.56582 0.42741,0.44849 0.8739,0.81543 0.99219,0.81543 0.1183,0 0.21508,-0.53578 0.21508,-1.19063 0,-0.90277 0.0999,-1.19062 0.41314,-1.19062 0.3659,0 0.40371,0.77903 0.33073,6.81302 -0.0789,6.52111 -0.10775,6.85335 -0.67385,7.75436 -0.3253,0.51773 -1.03967,1.16011 -1.5875,1.4275 -1.19675,0.58413 -4.56235,0.78687 -5.84983,0.3524 z m 4.91286,-6.04245 c 1.67026,-0.71636 2.18767,-1.75141 2.18888,-4.37873 0.001,-2.57767 -0.53906,-3.61091 -2.37231,-4.53704 -2.23442,-1.12879 -4.4238,-0.49417 -5.67792,1.64583 -1.08966,1.85936 -1.15897,3.39773 -0.2324,5.1581 0.61904,1.1761 1.02388,1.58336 2.16807,2.1811 1.5157,0.7918 1.93528,0.7844 3.92568,-0.0693 z m -99.939295,-6.61824 v -7.95507 l 0.725444,0.0837 c 0.579196,0.0668 0.91257,0.41517 1.653646,1.72784 0.510511,0.90427 1.451755,2.57115 2.091653,3.70417 0.639899,1.13302 1.647619,2.87503 2.239377,3.87114 1.059523,1.78349 1.082759,1.80265 1.524234,1.25746 0.24657,-0.3045 0.962159,-1.47669 1.590196,-2.60485 0.628036,-1.12817 1.264047,-2.25104 1.413357,-2.49528 0.149307,-0.24423 0.900713,-1.58368 1.669791,-2.97656 1.180044,-2.13717 1.500132,-2.5325 2.05052,-2.5325 h 0.652198 v 7.9375 c 0,7.76111 -0.01175,7.9375 -0.529166,7.9375 -0.515057,0 -0.529167,-0.17639 -0.529167,-6.61458 0,-3.63802 -0.10214,-6.61458 -0.226975,-6.61458 -0.238242,0 -1.367314,1.78258 -3.100324,4.89479 -0.567227,1.01864 -1.176711,2.09021 -1.35441,2.38125 -0.1777,0.29104 -0.589955,1.03518 -0.916121,1.65364 -0.326168,0.61847 -0.782275,1.12448 -1.013573,1.12448 -0.232042,0 -0.820791,-0.68191 -1.313501,-1.52135 -0.491128,-0.83675 -1.077376,-1.81901 -1.302773,-2.18281 -0.225398,-0.36381 -0.600192,-1.01865 -0.832875,-1.45521 -1.610299,-3.02126 -2.792209,-4.89479 -3.087855,-4.89479 -0.274859,0 -0.345343,1.35002 -0.345343,6.61458 0,6.43819 -0.01411,6.61458 -0.529167,6.61458 -0.517433,0 -0.529166,-0.17639 -0.529166,-7.95507 z m 21.695833,7.22663 c -0.788517,-0.50677 -1.446017,-1.23534 -1.946831,-2.15726 -1.416999,-2.60846 -0.660474,-5.96007 1.762446,-7.80813 1.797348,-1.3709 4.991015,-1.24336 6.758942,0.26991 2.164308,1.85257 2.735903,4.73443 1.469848,7.41064 -0.991378,2.09561 -2.233594,2.85514 -4.850059,2.96552 -1.833403,0.0773 -2.104924,0.0195 -3.194346,-0.68068 z m 5.349359,-0.76675 c 1.271611,-0.88122 2.323558,-2.83957 2.323558,-4.32564 0,-1.62817 -1.085924,-3.54297 -2.468944,-4.35348 -2.109044,-1.23598 -4.43475,-0.64693 -5.88387,1.49025 -0.67568,0.9965 -0.775311,1.38283 -0.775311,3.00631 0,1.70287 0.07391,1.95618 0.860443,2.94919 1.098508,1.38686 2.794416,2.27224 4.004659,2.0907 0.492996,-0.0739 1.365753,-0.45974 1.939465,-0.85733 z m 8.292441,-1.88569 c -0.718936,-1.85129 -1.395706,-3.48781 -1.503934,-3.6367 -0.108228,-0.14888 -0.485579,-1.04185 -0.838557,-1.98437 -0.352978,-0.94252 -0.730742,-1.92203 -0.839475,-2.17669 -0.149657,-0.3505 -0.07199,-0.46302 0.319593,-0.46302 0.34613,0 0.657323,0.32829 0.940503,0.99218 0.762,1.78644 1.797728,4.40421 2.322947,5.87119 0.830149,2.31866 1.385017,3.45538 1.686689,3.45538 0.277728,0 0.47374,-0.43402 1.852123,-4.10105 0.382895,-1.01864 0.855639,-2.20927 1.050542,-2.64583 0.194903,-0.43656 0.556794,-1.41883 0.804206,-2.18281 0.335849,-1.03707 0.578546,-1.38906 0.957744,-1.38906 0.279347,0 0.507902,0.0339 0.507902,0.0753 0,0.22169 -1.13661,3.27194 -1.302916,3.49656 -0.107744,0.14552 -0.352761,0.6813 -0.544484,1.19063 -0.191722,0.50932 -0.669586,1.69994 -1.061924,2.64583 -0.392334,0.94589 -0.920115,2.28534 -1.172847,2.97656 -0.392875,1.07452 -0.561854,1.25569 -1.165233,1.24933 -0.65754,-0.007 -0.794965,-0.23725 -2.012879,-3.37344 z m 10.1707,-2.43995 c 0,-5.64444 0.01603,-5.82083 0.529167,-5.82083 0.51313,0 0.529166,0.17639 0.529166,5.82083 0,5.64444 -0.01603,5.82083 -0.529166,5.82083 -0.513131,0 -0.529167,-0.17639 -0.529167,-5.82083 z m 7.540625,5.46718 c -1.373997,-0.62305 -2.6914,-2.33882 -3.059816,-3.98507 -1.073817,-4.79832 2.732648,-8.34586 7.526721,-7.01475 1.752505,0.4866 3.583987,3.00048 3.597076,4.93733 l 0.0058,0.85989 H 90.67648 85.649397 l 0.0058,0.72761 c 0.01746,2.18578 2.180325,4.29948 4.39951,4.29948 1.248934,0 3.137273,-0.84961 3.533391,-1.58977 0.341535,-0.63816 1.132078,-0.71052 1.010375,-0.0925 -0.04705,0.23893 -0.542583,0.80408 -1.101182,1.25587 -0.911969,0.7376 -1.222553,0.82861 -3.042709,0.89163 -1.286523,0.0445 -2.317051,-0.0613 -2.82082,-0.28975 z m 7.011458,-6.50829 c 0,-2.07167 -2.390084,-4.25056 -4.662567,-4.25056 -1.128651,0 -3.001967,0.9992 -3.608337,1.92464 -0.490855,0.74914 -0.99691,2.47769 -0.786871,2.68773 0.08258,0.0826 2.154354,0.15013 4.603957,0.15013 4.227481,0 4.453818,-0.026 4.453818,-0.51194 z m 10.318749,-1.07556 c 0,-9.50387 -0.11829,-9.30039 3.05519,-5.25553 1.1573,1.47509 2.75903,3.48564 3.55939,4.4679 0.80037,0.98226 2.22043,2.75194 3.15568,3.93261 0.93526,1.18068 1.85799,2.14669 2.05052,2.14669 0.28101,0 0.35005,-1.30457 0.35005,-6.61458 0,-6.4382 0.0141,-6.61459 0.52917,-6.61459 0.51741,0 0.52917,0.17639 0.52917,7.9375 0,7.57032 -0.0228,7.9375 -0.49358,7.9375 -0.43696,0 -3.09012,-2.89782 -4.26892,-4.66259 -0.21828,-0.32679 -1.64738,-2.1274 -3.17578,-4.00135 -1.52839,-1.87396 -2.9654,-3.68807 -3.19334,-4.03137 -0.89712,-1.35113 -1.03922,-0.49944 -1.03922,6.22864 0,6.29028 -0.0144,6.46667 -0.52916,6.46667 -0.51741,0 -0.52917,-0.17639 -0.52917,-7.9375 z m 17.4625,2.11667 c 0,-5.64444 0.016,-5.82083 0.52917,-5.82083 0.51313,0 0.52916,0.17639 0.52916,5.82083 0,5.64444 -0.016,5.82083 -0.52916,5.82083 -0.51313,0 -0.52917,-0.17639 -0.52917,-5.82083 z m 19.31458,-2.38125 v -8.20208 h 0.66146 0.66146 v 3.70416 c 0,2.03729 0.0893,3.70342 0.19844,3.7025 0.10914,-8e-4 0.397,-0.35069 0.63969,-0.77727 0.92109,-1.61899 4.00004,-2.38864 5.81044,-1.45244 1.34365,0.69483 1.63397,1.8134 1.76373,6.79544 l 0.11543,4.43177 h -0.69199 -0.69199 l -0.004,-4.29948 c -0.004,-4.76883 -0.1363,-5.2883 -1.55389,-6.11622 -0.80031,-0.46741 -1.02449,-0.48837 -2.11607,-0.19786 -1.5674,0.41715 -2.31156,0.91189 -2.95236,1.96283 -0.44935,0.73695 -0.51568,1.34666 -0.51654,4.74813 l -10e-4,3.9026 h -0.66146 -0.66146 z m 14.64503,7.69951 c -0.42576,-0.49652 -0.50712,-1.20165 -0.62211,-5.39213 l -0.13229,-4.82092 -0.8599,-0.0829 c -0.51245,-0.0494 -0.85989,-0.22972 -0.85989,-0.44626 0,-0.21653 0.34744,-0.39685 0.85989,-0.44626 l 0.8599,-0.0829 0.0777,-1.91823 c 0.0689,-1.70103 0.13634,-1.91823 0.59531,-1.91823 0.4677,0 0.51757,0.1912 0.51757,1.98437 v 1.98438 h 1.32292 c 0.97725,0 1.32292,0.0999 1.32292,0.38238 0,0.26846 -0.37441,0.4064 -1.25677,0.46302 l -1.25677,0.0806 -0.0729,4.33044 c -0.0528,3.13869 0.017,4.43872 0.25371,4.72391 0.51127,0.61605 1.43042,0.8617 2.29569,0.61355 0.59036,-0.16932 0.82818,-0.13433 0.93236,0.13716 0.19765,0.51507 -0.18362,0.6796 -1.94488,0.83931 -1.35104,0.12251 -1.6036,0.0689 -2.03255,-0.43132 z M 80.093158,160.79628 c 0,-0.74965 0.100793,-0.92604 0.529167,-0.92604 0.428373,0 0.529166,0.17639 0.529166,0.92604 0,0.74965 -0.100793,0.92604 -0.529166,0.92604 -0.428374,0 -0.529167,-0.17639 -0.529167,-0.92604 z m 42.333332,0 c 0,-0.74965 0.10079,-0.92604 0.52917,-0.92604 0.42837,0 0.52916,0.17639 0.52916,0.92604 0,0.74965 -0.10079,0.92604 -0.52916,0.92604 -0.42838,0 -0.52917,-0.17639 -0.52917,-0.92604 z"
         id="path3824"
         inkscape:connector-curvature="0" />
    </g>
  </g>
</svg>
